<svg width="71" height="38" viewBox="0 0 71 38" fill="none" xmlns="http://www.w3.org/2000/svg">
<path fill-rule="evenodd" clip-rule="evenodd" d="M0.639404 0H6.16889C6.73753 0.00196915 7.29967 0.121631 7.82023 0.351519C8.34079 0.581406 8.80859 0.916585 9.19445 1.33614L29.2925 23.257L31.7793 20.5454L18.3406 5.87868H23.9049C24.4723 5.88027 25.0333 5.99981 25.5525 6.22976C26.0717 6.45971 26.5379 6.79509 26.9218 7.21482L35.4633 16.5284L44.0049 7.21482C44.3901 6.79443 44.8578 6.45869 45.3785 6.22874C45.8992 5.99878 46.4617 5.8796 47.0305 5.87868H52.56L39.1398 20.5372L41.6395 23.2628L61.7502 1.33614C62.1341 0.916414 62.6003 0.581021 63.1195 0.351073C63.6387 0.121124 64.1996 0.00159641 64.7671 0H70.2966L58.7424 12.6033V21.8775C58.7412 23.4063 58.4228 24.9181 57.8075 26.3164C57.1923 27.7148 56.2937 28.969 55.1691 29.9992C52.9866 31.9339 50.1331 32.9272 47.2268 32.7637C44.3204 32.6003 41.5951 31.2933 39.6413 29.1259L35.4573 24.5595L31.2767 29.1259C29.8068 30.801 27.8634 31.986 25.7056 32.5229C23.5478 33.0597 21.2784 32.9229 19.2001 32.1305C17.1218 31.3382 15.3334 29.9281 14.0737 28.0883C12.8139 26.2486 12.1427 24.0667 12.1495 21.8338V12.5549L0.639404 0ZM53.352 18.4831L45.6493 26.8852C46.2988 27.1637 46.9942 27.3195 47.7008 27.3443C48.4165 27.3732 49.1309 27.2591 49.8024 27.0088C50.474 26.7584 51.0894 26.3768 51.6132 25.8859C52.1446 25.3878 52.5721 24.7885 52.8706 24.1228C53.1692 23.4571 53.3328 22.7383 53.352 22.0085V18.4831ZM17.5399 18.4346L25.2845 26.8822C24.633 27.1625 23.935 27.3194 23.2259 27.3443C22.5044 27.3779 21.7835 27.2661 21.1056 27.0156C20.4278 26.7652 19.8066 26.3811 19.2787 25.8859C18.7473 25.3878 18.3198 24.7885 18.0213 24.1228C17.7227 23.4571 17.5591 22.7383 17.5399 22.0085V18.4346ZM35.468 30.0093L31.8077 34.0003L35.468 38L39.1369 34.0003L35.468 30.0093Z" fill="url(#paint0_linear_127_1002)"/>
<defs>
<linearGradient id="paint0_linear_127_1002" x1="55.2383" y1="37.3684" x2="55.2383" y2="4.03463" gradientUnits="userSpaceOnUse">
<stop stop-color="#F607FF"/>
<stop offset="0.04" stop-color="#E211FE"/>
<stop offset="0.13" stop-color="#B727FB"/>
<stop offset="0.22" stop-color="#9639F8"/>
<stop offset="0.31" stop-color="#7E45F6"/>
<stop offset="0.38" stop-color="#6F4CF5"/>
<stop offset="0.45" stop-color="#6A4FF5"/>
<stop offset="0.55" stop-color="#5C6EF3"/>
<stop offset="0.76" stop-color="#40AEEF"/>
<stop offset="0.92" stop-color="#2FD6EC"/>
<stop offset="1" stop-color="#28E5EB"/>
</linearGradient>
</defs>
</svg>
