<svg width="314" height="66" viewBox="0 0 314 66" fill="none" xmlns="http://www.w3.org/2000/svg">
<path d="M311.676 24.8623C311.764 26.5211 311.039 28.3473 309.227 30.35C307.411 32.3565 304.607 34.4198 300.83 36.4888C293.283 40.6232 282.16 44.616 268.224 48.2273C240.377 55.4434 201.608 61.0581 158.531 63.338C115.454 65.618 76.3093 64.1271 47.856 59.8907C33.6169 57.7707 22.1348 54.9743 14.1933 51.6597C10.2191 50.0009 7.21259 48.2452 5.19539 46.4416C3.18196 44.6413 2.2679 42.9019 2.1801 41.2431C2.09231 39.5842 2.81764 37.758 4.6298 35.7553C6.44534 33.7489 9.24971 31.6856 13.0267 29.6165C20.5739 25.4821 31.6966 21.4893 45.6324 17.8781C73.4795 10.6619 112.248 5.04725 155.325 2.7673C198.402 0.487346 237.547 1.97826 266 6.21461C280.24 8.33464 291.722 11.131 299.663 14.4457C303.637 16.1044 306.644 17.8602 308.661 19.6638C310.675 21.464 311.589 23.2034 311.676 24.8623Z" stroke="url(#paint0_diamond_1_5)" stroke-width="3"/>
<path d="M34.0201 13.86H44.3941C53.6761 13.86 59.8501 19.53 59.8501 27.93C59.8501 36.33 53.6761 42 44.3941 42H34.0201V13.86ZM39.7321 36.834H44.3941C50.2321 36.834 54.0961 33.39 54.0961 27.93C54.0961 22.47 50.2321 19.026 44.3941 19.026H39.7321V36.834ZM67.5197 11.466C69.4517 11.466 70.8797 13.02 70.8797 14.784C70.8797 16.632 69.4517 18.018 67.5197 18.018C65.5457 18.018 64.1597 16.632 64.1597 14.784C64.1597 13.02 65.5457 11.466 67.5197 11.466ZM70.2917 42H64.7477V21.042H70.2917V42ZM96.8833 21.042L96.9253 39.984C96.9253 46.41 92.4733 49.98 85.7113 49.98C80.8393 49.98 77.3113 48.258 75.5053 45.36L79.9993 41.958C81.6373 44.016 82.9813 44.982 85.7113 44.982C89.2393 44.982 91.5493 42.798 91.5493 39.144V38.808C89.9953 40.068 87.8533 40.74 84.9553 40.74C79.7052 40.74 74.7913 36.288 74.7913 30.534C74.7913 24.822 79.7052 20.412 84.9553 20.412C87.8533 20.412 89.9953 21.126 91.5493 22.344V21.042H96.8833ZM85.9213 35.994C88.8613 35.994 91.5493 33.81 91.5493 30.534C91.5493 27.258 88.8613 25.074 85.9213 25.074C82.6033 25.074 80.1253 27.258 80.1253 30.534C80.1253 33.81 82.6033 35.994 85.9213 35.994ZM105.869 11.466C107.801 11.466 109.229 13.02 109.229 14.784C109.229 16.632 107.801 18.018 105.869 18.018C103.895 18.018 102.509 16.632 102.509 14.784C102.509 13.02 103.895 11.466 105.869 11.466ZM108.641 42H103.097V21.042H108.641V42ZM128.471 36.456L130.067 41.076C127.883 42.252 126.371 42.63 124.607 42.63C119.651 42.63 116.375 40.026 116.375 34.272V25.578H111.881V21.042H116.375V14.7H121.919V21.042H128.765V25.578H121.919V33.852C121.919 36.372 123.137 37.464 124.985 37.464C125.951 37.464 127.379 37.044 128.471 36.456ZM153.706 21.042V42H148.162V40.362C146.398 41.79 144.088 42.63 141.232 42.63C135.898 42.63 130.942 38.136 130.942 31.542C130.942 24.948 135.898 20.412 141.232 20.412C144.088 20.412 146.398 21.252 148.162 22.722V21.042H153.706ZM142.198 37.8C145.18 37.8 148.162 35.406 148.162 31.542C148.162 27.678 145.18 25.242 142.198 25.242C138.838 25.242 136.318 27.678 136.318 31.542C136.318 35.406 138.838 37.8 142.198 37.8ZM165.113 42H159.569V11.76H165.113V42ZM181.225 13.86H194.329C200.797 13.86 204.745 17.682 204.745 23.31C204.745 29.022 200.797 32.802 194.329 32.802H186.937V42H181.225V13.86ZM186.937 27.636H194.329C197.395 27.636 199.075 25.914 199.075 23.31C199.075 20.79 197.395 19.026 194.329 19.026H186.937V27.636ZM230.241 21.042V42H224.697V40.362C222.933 41.79 220.623 42.63 217.767 42.63C212.433 42.63 207.477 38.136 207.477 31.542C207.477 24.948 212.433 20.412 217.767 20.412C220.623 20.412 222.933 21.252 224.697 22.722V21.042H230.241ZM218.733 37.8C221.715 37.8 224.697 35.406 224.697 31.542C224.697 27.678 221.715 25.242 218.733 25.242C215.373 25.242 212.853 27.678 212.853 31.542C212.853 35.406 215.373 37.8 218.733 37.8ZM234.34 36.456L239.926 35.322C240.22 37.464 242.068 38.178 244.252 38.178C246.31 38.178 247.528 37.254 247.528 36.078C247.528 35.322 247.024 34.566 245.218 34.188L240.934 33.306C237.154 32.508 235.012 30.366 235.012 27.342C235.012 23.31 238.288 20.412 243.58 20.412C248.536 20.412 251.98 22.974 252.694 26.628L247.402 27.678C247.192 25.998 245.722 24.78 243.412 24.78C241.186 24.78 240.556 25.872 240.556 26.838C240.556 27.51 240.808 28.224 242.446 28.602L247.444 29.694C251.14 30.492 252.946 32.802 252.946 35.616C252.946 40.236 249.208 42.63 243.748 42.63C239.128 42.63 234.886 40.824 234.34 36.456ZM255.053 36.456L260.639 35.322C260.933 37.464 262.781 38.178 264.965 38.178C267.023 38.178 268.241 37.254 268.241 36.078C268.241 35.322 267.737 34.566 265.931 34.188L261.647 33.306C257.867 32.508 255.725 30.366 255.725 27.342C255.725 23.31 259.001 20.412 264.293 20.412C269.249 20.412 272.693 22.974 273.407 26.628L268.115 27.678C267.905 25.998 266.435 24.78 264.125 24.78C261.899 24.78 261.269 25.872 261.269 26.838C261.269 27.51 261.521 28.224 263.159 28.602L268.157 29.694C271.853 30.492 273.659 32.802 273.659 35.616C273.659 40.236 269.921 42.63 264.461 42.63C259.841 42.63 255.599 40.824 255.053 36.456Z" fill="#1A1C1E"/>
<defs>
<radialGradient id="paint0_diamond_1_5" cx="0" cy="0" r="1" gradientUnits="userSpaceOnUse" gradientTransform="translate(-10.5693 0.851571) rotate(8.85552) scale(392.294 917.843)">
<stop offset="0.166219" stop-color="#28E5EB"/>
<stop offset="0.417595" stop-color="#6A4FF5"/>
<stop offset="0.639127" stop-color="#F607FF"/>
<stop offset="0.837975" stop-color="#28E5EB"/>
</radialGradient>
</defs>
</svg>
