<svg width="49" height="49" viewBox="0 0 49 49" fill="none" xmlns="http://www.w3.org/2000/svg">
<path d="M31.29 44.623H18.41C15.0287 44.623 13.338 44.623 12.0465 43.965C10.9105 43.3862 9.98688 42.4625 9.40805 41.3265C8.75 40.035 8.75 38.3444 8.75 34.963V14.033C8.75 10.6517 8.75 8.96107 9.40805 7.66958C9.98688 6.53355 10.9105 5.60993 12.0465 5.03109C13.338 4.37305 15.0287 4.37305 18.41 4.37305H28.875L40.95 16.448V34.963C40.95 38.3444 40.95 40.035 40.292 41.3265C39.7131 42.4625 38.7895 43.3862 37.6535 43.965C36.362 44.623 34.6713 44.623 31.29 44.623Z" fill="#F0EDFE"/>
<path d="M28.875 4.91548V13.2282C28.875 14.3553 28.875 14.9188 29.0944 15.3493C29.2873 15.728 29.5952 16.0359 29.9738 16.2288C30.4043 16.4482 30.9679 16.4482 32.095 16.4482H40.4077M32.9 26.5105H16.8M32.9 34.5605H16.8M20.825 18.4605H16.8M28.875 4.37305H18.41C15.0287 4.37305 13.338 4.37305 12.0465 5.03109C10.9105 5.60993 9.98688 6.53355 9.40805 7.66958C8.75 8.96107 8.75 10.6517 8.75 14.033V34.963C8.75 38.3444 8.75 40.035 9.40805 41.3265C9.98688 42.4625 10.9105 43.3862 12.0465 43.965C13.338 44.623 15.0287 44.623 18.41 44.623H31.29C34.6713 44.623 36.362 44.623 37.6535 43.965C38.7895 43.3862 39.7131 42.4625 40.292 41.3265C40.95 40.035 40.95 38.3444 40.95 34.963V16.448L28.875 4.37305Z" stroke="#6A4FF5" stroke-width="3" stroke-linecap="round" stroke-linejoin="round"/>
</svg>
