<svg width="45" height="45" viewBox="0 0 45 45" fill="none" xmlns="http://www.w3.org/2000/svg">
<path d="M25.8981 43.1803C27.4153 43.1806 28.9177 42.8661 30.3195 42.2548C31.7212 41.6436 32.995 40.7474 34.0679 39.6176C35.1408 38.4878 35.9919 37.1465 36.5726 35.6702C37.1532 34.1939 37.4521 32.6116 37.4521 31.0137H14.3354C14.3354 32.6124 14.6346 34.1954 15.2158 35.6723C15.797 37.1492 16.6489 38.4909 17.7227 39.6208C18.7966 40.7508 20.0713 41.6467 21.4741 42.2575C22.8769 42.8682 24.3802 43.1818 25.8981 43.1803Z" fill="#6A4FF5"/>
<path d="M27.7528 30.0828C29.2056 29.4924 30.5203 28.639 31.6219 27.5714C32.7234 26.5037 33.5903 25.2428 34.1729 23.8605C34.7555 22.4782 35.0425 21.0017 35.0174 19.5152C34.9923 18.0288 34.6556 16.5615 34.0267 15.1973L11.9022 24.1909C13.1724 26.9459 15.5559 29.1144 18.5283 30.2193C21.5008 31.3242 24.8188 31.2751 27.7528 30.0828Z" fill="#6A4FF5"/>
<path d="M12.4499 18.1539C15.0986 19.8615 18.3232 20.4568 21.4147 19.8088C24.5062 19.1608 27.2114 17.3225 28.9355 14.6983L8.96518 1.81445C7.24109 4.4392 6.63963 7.63513 7.29313 10.6993C7.94663 13.7635 9.80156 16.4449 12.4499 18.1539Z" fill="#6A4FF5"/>
</svg>
