<svg width="45" height="45" viewBox="0 0 45 45" fill="none" xmlns="http://www.w3.org/2000/svg">
<path d="M10.0626 2.31955L2.554 9.8282C1.60372 10.7785 1.60373 12.3192 2.554 13.2695L10.0627 20.7781C11.0129 21.7284 12.5536 21.7284 13.5039 20.7781L21.0126 13.2695C21.9628 12.3192 21.9628 10.7785 21.0126 9.82821L13.5039 2.31955C12.5536 1.36928 11.0129 1.36928 10.0626 2.31955Z" fill="#6A4FF5"/>
<path d="M31.9639 2.31955L24.4552 9.8282C23.505 10.7785 23.505 12.3192 24.4552 13.2695L31.9639 20.7781C32.9142 21.7284 34.4549 21.7284 35.4052 20.7781L42.9138 13.2695C43.8641 12.3192 43.8641 10.7785 42.9138 9.82821L35.4051 2.31955C34.4549 1.36928 32.9142 1.36928 31.9639 2.31955Z" fill="#6A4FF5"/>
<path d="M10.064 24.2199L2.55534 31.7286C1.60507 32.6789 1.60507 34.2196 2.55534 35.1698L10.064 42.6785C11.0143 43.6288 12.555 43.6288 13.5052 42.6785L21.0139 35.1698C21.9642 34.2196 21.9642 32.6789 21.0139 31.7286L13.5052 24.2199C12.555 23.2697 11.0143 23.2697 10.064 24.2199Z" fill="#6A4FF5"/>
<path d="M31.965 24.2199L24.4563 31.7286C23.5061 32.6789 23.5061 34.2196 24.4563 35.1698L31.965 42.6785C32.9153 43.6288 34.456 43.6288 35.4062 42.6785L42.9149 35.1698C43.8652 34.2196 43.8652 32.6789 42.9149 31.7286L35.4062 24.2199C34.456 23.2697 32.9153 23.2697 31.965 24.2199Z" fill="#6A4FF5"/>
</svg>
