<svg width="45" height="45" viewBox="0 0 45 45" fill="none" xmlns="http://www.w3.org/2000/svg">
<path d="M29.8059 0.59961C27.8872 0.598989 25.9872 0.976238 24.2146 1.70979C22.4419 2.44335 20.8313 3.51882 19.4749 4.87474C18.1184 6.23067 17.0426 7.84045 16.3091 9.61205C15.5756 11.3837 15.1987 13.2824 15.2 15.1996H44.4C44.4012 13.2834 44.0247 11.3856 43.2919 9.61478C42.5591 7.84394 41.4845 6.23469 40.1292 4.87893C38.774 3.52316 37.1648 2.44743 35.3935 1.71318C33.6222 0.978933 31.7235 0.600541 29.8059 0.59961Z" fill="#6A4FF5"/>
<path d="M0.599979 15.2055C0.599979 17.122 0.977604 19.0198 1.71132 20.7904C2.44504 22.5611 3.52046 24.1699 4.8762 25.5251C6.23193 26.8803 7.84144 27.9553 9.6128 28.6887C11.3842 29.4221 13.2827 29.7996 15.2 29.7996V0.599609C13.2818 0.59992 11.3824 0.978007 9.61043 1.71228C7.83845 2.44655 6.22856 3.52261 4.87273 4.87899C3.5169 6.23536 2.44171 7.84547 1.70858 9.61734C0.975446 11.3892 0.598736 13.2881 0.599979 15.2055Z" fill="#6A4FF5"/>
<path d="M15.1964 44.3988C19.0695 44.3988 22.784 42.8606 25.5227 40.1226C28.2614 37.3845 29.8 33.671 29.8 29.7988H0.599976C0.599975 33.6698 2.13759 37.3822 4.87475 40.1201C7.61191 42.8579 11.3246 44.3969 15.1964 44.3988Z" fill="#6A4FF5"/>
<path d="M44.3999 29.798C44.3999 25.9262 42.8617 22.2129 40.1237 19.4751C37.3856 16.7373 33.6721 15.1992 29.7999 15.1992V44.3992C33.6723 44.3986 37.3859 42.86 40.1239 40.1218C42.8618 37.3836 44.3999 33.6701 44.3999 29.798Z" fill="#6A4FF5"/>
</svg>
