<svg width="45" height="45" viewBox="0 0 45 45" fill="none" xmlns="http://www.w3.org/2000/svg">
<path d="M22.6166 0.599609C21.1787 0.599609 19.7548 0.882834 18.4262 1.43312C17.0977 1.98341 15.8906 2.78999 14.8738 3.8068C13.857 4.8236 13.0504 6.03072 12.5002 7.35923C11.9499 8.68775 11.6666 10.1116 11.6666 11.5496H33.5666C33.5666 8.64549 32.413 5.86032 30.3594 3.8068C28.3059 1.75327 25.5207 0.599609 22.6166 0.599609Z" fill="#6A4FF5"/>
<path d="M22.6166 44.3992C24.0548 44.3992 25.4789 44.116 26.8076 43.5656C28.1363 43.0153 29.3435 42.2087 30.3603 41.1919C31.3771 40.1751 32.1836 38.9679 32.7338 37.6394C33.2839 36.3109 33.5669 34.8871 33.5666 33.4492H11.6666C11.6663 34.8871 11.9493 36.3109 12.4995 37.6394C13.0496 38.9679 13.8562 40.1751 14.873 41.1919C15.8898 42.2087 17.0971 43.0153 18.4257 43.5656C19.7544 44.116 21.1785 44.3992 22.6166 44.3992Z" fill="#6A4FF5"/>
<path d="M0.716675 22.4988C0.716364 23.9369 0.999332 25.3609 1.54951 26.6896C2.09969 28.0182 2.90627 29.2255 3.92314 30.2423C4.94 31.2592 6.14726 32.0658 7.47592 32.616C8.80458 33.1661 10.2286 33.4491 11.6667 33.4488V11.5488C8.76254 11.5488 5.97736 12.7025 3.92383 14.756C1.8703 16.8095 0.716675 19.5947 0.716675 22.4988Z" fill="#6A4FF5"/>
<path d="M44.5167 22.4988C44.5167 21.0607 44.2334 19.6366 43.6831 18.3079C43.1328 16.9792 42.3262 15.772 41.3093 14.7552C40.2925 13.7383 39.0853 12.9318 37.7568 12.3817C36.4283 11.8315 35.0045 11.5485 33.5667 11.5488V33.4488C35.0045 33.4491 36.4283 33.1661 37.7568 32.616C39.0853 32.0658 40.2925 31.2593 41.3093 30.2425C42.3262 29.2257 43.1328 28.0184 43.6831 26.6898C44.2334 25.3611 44.5167 23.937 44.5167 22.4988Z" fill="#6A4FF5"/>
<path d="M44.5167 11.5496C44.5167 10.1114 44.2334 8.68735 43.6831 7.35868C43.1328 6.03001 42.3262 4.82279 41.3093 3.80595C40.2925 2.78912 39.0853 1.98261 37.7568 1.43246C36.4283 0.882309 35.0045 0.599299 33.5667 0.59961V11.5496H44.5167Z" fill="#6A4FF5"/>
<path d="M0.716675 11.5496C0.716675 8.64549 1.8703 5.86031 3.92383 3.80679C5.97736 1.75327 8.76254 0.599609 11.6667 0.599609V11.5496H0.716675Z" fill="#6A4FF5"/>
<path d="M0.716675 33.4492C0.716364 34.8871 0.999361 36.3109 1.54951 37.6394C2.09967 38.9679 2.90619 40.1751 3.92302 41.1919C4.93986 42.2087 6.14707 43.0153 7.47575 43.5656C8.80442 44.116 10.2285 44.3992 11.6667 44.3992V33.4492H0.716675Z" fill="#6A4FF5"/>
<path d="M44.5167 33.4492C44.5167 36.3533 43.363 39.1385 41.3095 41.1921C39.2559 43.2456 36.4708 44.3992 33.5667 44.3992V33.4492H44.5167Z" fill="#6A4FF5"/>
<path d="M22.6166 33.4488C28.6641 33.4488 33.5666 28.5464 33.5666 22.4988C33.5666 16.4513 28.6641 11.5488 22.6166 11.5488C16.5691 11.5488 11.6666 16.4513 11.6666 22.4988C11.6666 28.5464 16.5691 33.4488 22.6166 33.4488Z" fill="#6A4FF5"/>
</svg>
