<svg width="228" height="111" viewBox="0 0 228 111" fill="none" xmlns="http://www.w3.org/2000/svg">
<rect width="279" height="111" rx="55.5" fill="#6A4FF5"/>
<path d="M51.4 30.6H57.64C60.72 30.6 62.6 32.42 62.6 35.1C62.6 37.82 60.72 39.62 57.64 39.62H54.12V44H51.4V30.6ZM54.12 37.16H57.64C59.1 37.16 59.9 36.34 59.9 35.1C59.9 33.9 59.1 33.06 57.64 33.06H54.12V37.16ZM74.3408 41.54V44H64.7008V30.6H67.4208V41.54H74.3408ZM89.2767 44H86.3367L85.1767 41.14H79.2567L78.0767 44H75.1367L80.9367 30.6H83.4767L89.2767 44ZM84.1567 38.68L82.2167 33.9L80.2567 38.68H84.1567ZM95.5052 39.72V44H92.7852V39.76L87.4852 30.6H90.4852L94.1452 36.92L97.7852 30.6H100.905L95.5052 39.72Z" fill="white"/>
<path d="M115 43.5L121 37.5L115 31.5" stroke="white" stroke-width="2" stroke-linecap="round" stroke-linejoin="round"/>
<path d="M61.328 58.96L58.916 67H57.548L55.748 61.024L53.936 67H52.568L50.168 58.96H51.512L53.276 65.02L55.124 58.96H56.36L58.208 65.02L59.972 58.96H61.328ZM67.5311 63.892V64.324H62.7071C62.8271 65.428 63.6311 66.088 64.5071 66.088C65.1671 66.088 65.8391 65.896 66.2591 65.056L67.3751 65.296C66.8831 66.544 65.8271 67.168 64.5071 67.168C62.8871 67.168 61.4711 65.92 61.4711 64.036C61.4711 62.14 62.8751 60.88 64.5551 60.88C66.1511 60.88 67.4711 62.104 67.5311 63.892ZM64.5551 61.984C63.7751 61.984 62.9351 62.476 62.7431 63.436H66.2471C66.0551 62.464 65.3711 61.984 64.5551 61.984ZM79.2337 60.88C80.4697 60.88 81.4897 61.804 81.4897 63.208V67H80.2537V63.46C80.2537 62.584 79.6777 62.032 78.9097 62.032C77.9377 62.032 77.3017 62.716 77.3017 64.048V67H76.0537V63.46C76.0537 62.584 75.4777 62.032 74.7097 62.032C73.7497 62.032 73.1257 62.716 73.1257 64.048V67H71.8777V61.048H73.1257V61.72C73.5577 61.192 74.1817 60.88 75.0337 60.88C75.8857 60.88 76.6297 61.276 77.0137 61.972C77.4937 61.3 78.2497 60.88 79.2337 60.88ZM89.0766 61.048V67H87.8286V66.316C87.3126 66.856 86.5686 67.168 85.6686 67.168C84.1086 67.168 82.7166 65.908 82.7166 64.024C82.7166 62.152 84.1086 60.88 85.6686 60.88C86.5686 60.88 87.3126 61.192 87.8286 61.732V61.048H89.0766ZM85.8726 66.064C86.8566 66.064 87.8286 65.284 87.8286 64.024C87.8286 62.776 86.8566 61.984 85.8726 61.984C84.7806 61.984 83.9286 62.776 83.9286 64.024C83.9286 65.284 84.7806 66.064 85.8726 66.064ZM97.0155 67H95.3235L92.5755 64.528H92.2155V67H90.9675V58.36H92.2155V63.292H92.5875L95.0715 61.048H96.6675L93.5475 63.928L97.0155 67ZM103.203 63.892V64.324H98.3789C98.4989 65.428 99.3029 66.088 100.179 66.088C100.839 66.088 101.511 65.896 101.931 65.056L103.047 65.296C102.555 66.544 101.499 67.168 100.179 67.168C98.5589 67.168 97.1429 65.92 97.1429 64.036C97.1429 62.14 98.5469 60.88 100.227 60.88C101.823 60.88 103.143 62.104 103.203 63.892ZM100.227 61.984C99.4469 61.984 98.6069 62.476 98.4149 63.436H101.919C101.727 62.464 101.043 61.984 100.227 61.984ZM113.214 61.048V66.472C113.214 68.248 111.99 69.28 110.13 69.28C108.702 69.28 107.706 68.74 107.226 67.852L108.246 67.096C108.69 67.792 109.182 68.152 110.13 68.152C111.258 68.152 112.002 67.444 112.002 66.292V65.908C111.546 66.388 110.862 66.652 109.95 66.652C108.426 66.652 107.034 65.416 107.034 63.76C107.034 62.104 108.426 60.892 109.95 60.892C110.862 60.892 111.546 61.156 112.002 61.636V61.048H113.214ZM110.154 65.572C111.126 65.572 112.002 64.852 112.002 63.76C112.002 62.656 111.126 61.948 110.154 61.948C109.086 61.948 108.246 62.656 108.246 63.76C108.246 64.852 109.086 65.572 110.154 65.572ZM115.828 58.48C116.284 58.48 116.62 58.84 116.62 59.26C116.62 59.704 116.284 60.028 115.828 60.028C115.36 60.028 115.024 59.704 115.024 59.26C115.024 58.84 115.36 58.48 115.828 58.48ZM116.452 67H115.204V61.048H116.452V67ZM124.112 61.036L121.544 67H120.212L117.656 61.036H119.012L120.884 65.512L122.756 61.036H124.112ZM130.59 63.892V64.324H125.766C125.886 65.428 126.69 66.088 127.566 66.088C128.226 66.088 128.898 65.896 129.318 65.056L130.434 65.296C129.942 66.544 128.886 67.168 127.566 67.168C125.946 67.168 124.53 65.92 124.53 64.036C124.53 62.14 125.934 60.88 127.614 60.88C129.21 60.88 130.53 62.104 130.59 63.892ZM127.614 61.984C126.834 61.984 125.994 62.476 125.802 63.436H129.306C129.114 62.464 128.43 61.984 127.614 61.984ZM137.791 61.048V67H136.543V66.316C136.027 66.856 135.283 67.168 134.383 67.168C132.823 67.168 131.431 65.908 131.431 64.024C131.431 62.152 132.823 60.88 134.383 60.88C135.283 60.88 136.027 61.192 136.543 61.732V61.048H137.791ZM134.587 66.064C135.571 66.064 136.543 65.284 136.543 64.024C136.543 62.776 135.571 61.984 134.587 61.984C133.495 61.984 132.643 62.776 132.643 64.024C132.643 65.284 133.495 66.064 134.587 66.064ZM147.902 61.048L145.91 67.024H144.77L143.402 63.016L142.034 67.024H140.894L138.902 61.048H140.15L141.506 65.188L142.91 61.048H143.894L145.298 65.188L146.654 61.048H147.902ZM154.795 61.048V67H153.547V66.316C153.031 66.856 152.287 67.168 151.387 67.168C149.827 67.168 148.435 65.908 148.435 64.024C148.435 62.152 149.827 60.88 151.387 60.88C152.287 60.88 153.031 61.192 153.547 61.732V61.048H154.795ZM151.591 66.064C152.575 66.064 153.547 65.284 153.547 64.024C153.547 62.776 152.575 61.984 151.591 61.984C150.499 61.984 149.647 62.776 149.647 64.024C149.647 65.284 150.499 66.064 151.591 66.064ZM162.458 61.036L158.894 69.04H157.502L158.474 66.856L155.906 61.036H157.298L159.158 65.332L161.066 61.036H162.458ZM162.897 65.404L164.145 65.14C164.229 65.848 164.853 66.148 165.633 66.148C166.353 66.148 166.809 65.824 166.809 65.356C166.809 64.996 166.557 64.768 166.005 64.648L164.709 64.384C163.677 64.156 163.089 63.604 163.089 62.764C163.089 61.66 164.013 60.88 165.441 60.88C166.809 60.88 167.733 61.6 167.949 62.596L166.761 62.848C166.665 62.272 166.173 61.876 165.405 61.876C164.673 61.876 164.349 62.236 164.349 62.656C164.349 62.992 164.541 63.208 165.069 63.328L166.485 63.64C167.445 63.844 168.033 64.408 168.033 65.248C168.033 66.496 167.013 67.168 165.525 67.168C164.193 67.168 163.053 66.604 162.897 65.404ZM175.989 65.668L176.373 66.712C175.809 67.048 175.401 67.168 174.897 67.168C173.613 67.168 172.749 66.448 172.749 64.972V62.08H171.465V61.048H172.749V59.2H173.997V61.048H176.037V62.08H173.997V64.888C173.997 65.632 174.393 65.992 174.981 65.992C175.293 65.992 175.677 65.872 175.989 65.668ZM179.917 60.916C181.669 60.916 183.097 62.176 183.097 64.024C183.097 65.872 181.669 67.144 179.917 67.144C178.153 67.144 176.713 65.872 176.713 64.024C176.713 62.176 178.153 60.916 179.917 60.916ZM179.917 66.064C180.937 66.064 181.885 65.26 181.885 64.024C181.885 62.788 180.937 61.984 179.917 61.984C178.873 61.984 177.937 62.788 177.937 64.024C177.937 65.26 178.873 66.064 179.917 66.064ZM191.036 65.668L191.42 66.712C190.856 67.048 190.448 67.168 189.944 67.168C188.66 67.168 187.796 66.448 187.796 64.972V62.08H186.512V61.048H187.796V59.2H189.044V61.048H191.084V62.08H189.044V64.888C189.044 65.632 189.44 65.992 190.028 65.992C190.34 65.992 190.724 65.872 191.036 65.668ZM195.74 60.88C197.168 60.88 198.128 61.912 198.128 63.4V67H196.868V63.652C196.868 62.68 196.304 62.032 195.452 62.032C194.384 62.032 193.676 62.752 193.676 64.252V67H192.428V58.36H193.676V61.78C194.156 61.204 194.852 60.88 195.74 60.88ZM205.426 63.892V64.324H200.602C200.722 65.428 201.526 66.088 202.402 66.088C203.062 66.088 203.734 65.896 204.154 65.056L205.27 65.296C204.778 66.544 203.722 67.168 202.402 67.168C200.782 67.168 199.366 65.92 199.366 64.036C199.366 62.14 200.77 60.88 202.45 60.88C204.046 60.88 205.366 62.104 205.426 63.892ZM202.45 61.984C201.67 61.984 200.83 62.476 200.638 63.436H204.142C203.95 62.464 203.266 61.984 202.45 61.984ZM56.612 77.048V82.472C56.612 84.248 55.388 85.28 53.528 85.28C52.1 85.28 51.104 84.74 50.624 83.852L51.644 83.096C52.088 83.792 52.58 84.152 53.528 84.152C54.656 84.152 55.4 83.444 55.4 82.292V81.908C54.944 82.388 54.26 82.652 53.348 82.652C51.824 82.652 50.432 81.416 50.432 79.76C50.432 78.104 51.824 76.892 53.348 76.892C54.26 76.892 54.944 77.156 55.4 77.636V77.048H56.612ZM53.552 81.572C54.524 81.572 55.4 80.852 55.4 79.76C55.4 78.656 54.524 77.948 53.552 77.948C52.484 77.948 51.644 78.656 51.644 79.76C51.644 80.852 52.484 81.572 53.552 81.572ZM64.3266 77.048V83H63.0786V82.316C62.5626 82.856 61.8186 83.168 60.9186 83.168C59.3586 83.168 57.9666 81.908 57.9666 80.024C57.9666 78.152 59.3586 76.88 60.9186 76.88C61.8186 76.88 62.5626 77.192 63.0786 77.732V77.048H64.3266ZM61.1226 82.064C62.1066 82.064 63.0786 81.284 63.0786 80.024C63.0786 78.776 62.1066 77.984 61.1226 77.984C60.0306 77.984 59.1786 78.776 59.1786 80.024C59.1786 81.284 60.0306 82.064 61.1226 82.064ZM73.5735 76.88C74.8095 76.88 75.8295 77.804 75.8295 79.208V83H74.5935V79.46C74.5935 78.584 74.0175 78.032 73.2495 78.032C72.2775 78.032 71.6415 78.716 71.6415 80.048V83H70.3935V79.46C70.3935 78.584 69.8175 78.032 69.0495 78.032C68.0895 78.032 67.4655 78.716 67.4655 80.048V83H66.2175V77.048H67.4655V77.72C67.8975 77.192 68.5215 76.88 69.3735 76.88C70.2255 76.88 70.9695 77.276 71.3535 77.972C71.8335 77.3 72.5895 76.88 73.5735 76.88ZM83.1404 79.892V80.324H78.3164C78.4364 81.428 79.2404 82.088 80.1164 82.088C80.7764 82.088 81.4484 81.896 81.8684 81.056L82.9844 81.296C82.4924 82.544 81.4364 83.168 80.1164 83.168C78.4964 83.168 77.0804 81.92 77.0804 80.036C77.0804 78.14 78.4844 76.88 80.1644 76.88C81.7604 76.88 83.0804 78.104 83.1404 79.892ZM80.1644 77.984C79.3844 77.984 78.5444 78.476 78.3524 79.436H81.8564C81.6644 78.464 80.9804 77.984 80.1644 77.984ZM84.0182 81.404L85.2662 81.14C85.3502 81.848 85.9742 82.148 86.7542 82.148C87.4742 82.148 87.9302 81.824 87.9302 81.356C87.9302 80.996 87.6782 80.768 87.1262 80.648L85.8302 80.384C84.7982 80.156 84.2102 79.604 84.2102 78.764C84.2102 77.66 85.1342 76.88 86.5622 76.88C87.9302 76.88 88.8542 77.6 89.0702 78.596L87.8822 78.848C87.7862 78.272 87.2942 77.876 86.5262 77.876C85.7942 77.876 85.4702 78.236 85.4702 78.656C85.4702 78.992 85.6622 79.208 86.1902 79.328L87.6062 79.64C88.5662 79.844 89.1542 80.408 89.1542 81.248C89.1542 82.496 88.1342 83.168 86.6462 83.168C85.3142 83.168 84.1742 82.604 84.0182 81.404ZM97.1099 81.668L97.4939 82.712C96.9299 83.048 96.5219 83.168 96.0179 83.168C94.7339 83.168 93.8699 82.448 93.8699 80.972V78.08H92.5859V77.048H93.8699V75.2H95.1179V77.048H97.1579V78.08H95.1179V80.888C95.1179 81.632 95.5139 81.992 96.1019 81.992C96.4139 81.992 96.7979 81.872 97.1099 81.668ZM101.038 76.916C102.79 76.916 104.218 78.176 104.218 80.024C104.218 81.872 102.79 83.144 101.038 83.144C99.2743 83.144 97.8343 81.872 97.8343 80.024C97.8343 78.176 99.2743 76.916 101.038 76.916ZM101.038 82.064C102.058 82.064 103.006 81.26 103.006 80.024C103.006 78.788 102.058 77.984 101.038 77.984C99.9943 77.984 99.0583 78.788 99.0583 80.024C99.0583 81.26 99.9943 82.064 101.038 82.064ZM112.157 81.668L112.541 82.712C111.977 83.048 111.569 83.168 111.065 83.168C109.781 83.168 108.917 82.448 108.917 80.972V78.08H107.633V77.048H108.917V75.2H110.165V77.048H112.205V78.08H110.165V80.888C110.165 81.632 110.561 81.992 111.149 81.992C111.461 81.992 111.845 81.872 112.157 81.668ZM116.862 76.88C118.29 76.88 119.25 77.912 119.25 79.4V83H117.99V79.652C117.99 78.68 117.426 78.032 116.574 78.032C115.506 78.032 114.798 78.752 114.798 80.252V83H113.55V74.36H114.798V77.78C115.278 77.204 115.974 76.88 116.862 76.88ZM126.547 79.892V80.324H121.723C121.843 81.428 122.647 82.088 123.523 82.088C124.183 82.088 124.855 81.896 125.275 81.056L126.391 81.296C125.899 82.544 124.843 83.168 123.523 83.168C121.903 83.168 120.487 81.92 120.487 80.036C120.487 78.14 121.891 76.88 123.571 76.88C125.167 76.88 126.487 78.104 126.547 79.892ZM123.571 77.984C122.791 77.984 121.951 78.476 121.759 79.436H125.263C125.071 78.464 124.387 77.984 123.571 77.984ZM132.141 83H130.893V74.36H132.141V83ZM139.578 79.892V80.324H134.754C134.874 81.428 135.678 82.088 136.554 82.088C137.214 82.088 137.886 81.896 138.306 81.056L139.422 81.296C138.93 82.544 137.874 83.168 136.554 83.168C134.934 83.168 133.518 81.92 133.518 80.036C133.518 78.14 134.922 76.88 136.602 76.88C138.198 76.88 139.518 78.104 139.578 79.892ZM136.602 77.984C135.822 77.984 134.982 78.476 134.79 79.436H138.294C138.102 78.464 137.418 77.984 136.602 77.984ZM146.78 77.048V83H145.532V82.316C145.016 82.856 144.272 83.168 143.372 83.168C141.812 83.168 140.42 81.908 140.42 80.024C140.42 78.152 141.812 76.88 143.372 76.88C144.272 76.88 145.016 77.192 145.532 77.732V77.048H146.78ZM143.576 82.064C144.56 82.064 145.532 81.284 145.532 80.024C145.532 78.776 144.56 77.984 143.576 77.984C142.484 77.984 141.632 78.776 141.632 80.024C141.632 81.284 142.484 82.064 143.576 82.064ZM154.527 74.36V83H153.267V82.328C152.739 82.856 152.007 83.168 151.107 83.168C149.559 83.168 148.155 81.908 148.155 80.024C148.155 78.152 149.559 76.88 151.107 76.88C152.007 76.88 152.739 77.192 153.267 77.732V74.36H154.527ZM151.311 82.064C152.307 82.064 153.267 81.284 153.267 80.024C153.267 78.776 152.307 77.984 151.311 77.984C150.231 77.984 149.379 78.776 149.379 80.024C149.379 81.284 150.231 82.064 151.311 82.064ZM161.949 79.892V80.324H157.125C157.245 81.428 158.049 82.088 158.925 82.088C159.585 82.088 160.257 81.896 160.677 81.056L161.793 81.296C161.301 82.544 160.245 83.168 158.925 83.168C157.305 83.168 155.889 81.92 155.889 80.036C155.889 78.14 157.293 76.88 158.973 76.88C160.569 76.88 161.889 78.104 161.949 79.892ZM158.973 77.984C158.193 77.984 157.353 78.476 157.161 79.436H160.665C160.473 78.464 159.789 77.984 158.973 77.984ZM166.847 76.976C166.991 76.976 167.111 76.976 167.267 77.024L167.183 78.224C167.087 78.212 166.943 78.212 166.835 78.212C165.323 78.212 164.579 79.268 164.579 80.9V83H163.331V77.048H164.579V78.32C165.059 77.528 165.815 76.976 166.847 76.976ZM171.778 76.88C173.338 76.88 174.73 78.152 174.73 80.024C174.73 81.908 173.338 83.168 171.778 83.168C170.878 83.168 170.134 82.856 169.618 82.316V83H168.37V74.36H169.618V77.732C170.134 77.192 170.878 76.88 171.778 76.88ZM171.574 82.064C172.666 82.064 173.518 81.284 173.518 80.024C173.518 78.776 172.666 77.984 171.574 77.984C170.59 77.984 169.618 78.776 169.618 80.024C169.618 81.284 170.59 82.064 171.574 82.064ZM178.792 76.916C180.544 76.916 181.972 78.176 181.972 80.024C181.972 81.872 180.544 83.144 178.792 83.144C177.028 83.144 175.588 81.872 175.588 80.024C175.588 78.176 177.028 76.916 178.792 76.916ZM178.792 82.064C179.812 82.064 180.76 81.26 180.76 80.024C180.76 78.788 179.812 77.984 178.792 77.984C177.748 77.984 176.812 78.788 176.812 80.024C176.812 81.26 177.748 82.064 178.792 82.064ZM189.19 77.048V83H187.942V82.316C187.426 82.856 186.682 83.168 185.782 83.168C184.222 83.168 182.83 81.908 182.83 80.024C182.83 78.152 184.222 76.88 185.782 76.88C186.682 76.88 187.426 77.192 187.942 77.732V77.048H189.19ZM185.986 82.064C186.97 82.064 187.942 81.284 187.942 80.024C187.942 78.776 186.97 77.984 185.986 77.984C184.894 77.984 184.042 78.776 184.042 80.024C184.042 81.284 184.894 82.064 185.986 82.064ZM194.597 76.976C194.741 76.976 194.861 76.976 195.017 77.024L194.933 78.224C194.837 78.212 194.693 78.212 194.585 78.212C193.073 78.212 192.329 79.268 192.329 80.9V83H191.081V77.048H192.329V78.32C192.809 77.528 193.565 76.976 194.597 76.976ZM201.812 74.36V83H200.552V82.328C200.024 82.856 199.292 83.168 198.392 83.168C196.844 83.168 195.44 81.908 195.44 80.024C195.44 78.152 196.844 76.88 198.392 76.88C199.292 76.88 200.024 77.192 200.552 77.732V74.36H201.812ZM198.596 82.064C199.592 82.064 200.552 81.284 200.552 80.024C200.552 78.776 199.592 77.984 198.596 77.984C197.516 77.984 196.664 78.776 196.664 80.024C196.664 81.284 197.516 82.064 198.596 82.064Z" fill="white"/>
</svg>
