<svg width="53" height="53" viewBox="0 0 53 53" fill="none" xmlns="http://www.w3.org/2000/svg">
<path d="M49.6444 11.2116C49.5794 10.9366 49.4452 10.6829 49.2544 10.4744C49.0637 10.266 48.8228 10.1098 48.5546 10.0208L44.3726 8.6262L42.9764 4.44417C42.887 4.17657 42.7308 3.93624 42.5225 3.74595C42.3142 3.55567 42.0607 3.42174 41.7862 3.35687C41.5116 3.29201 41.225 3.29835 40.9536 3.3753C40.6822 3.45225 40.4349 3.59726 40.2353 3.79657L34.9137 9.1181C30.3507 6.69718 25.0705 5.99405 20.0329 7.13653C14.9954 8.27901 10.5351 11.1912 7.4629 15.3438C4.3907 19.4963 2.91062 24.6134 3.29173 29.7648C3.67284 34.9162 5.88984 39.7598 9.53967 43.415C13.1895 47.0702 18.0298 49.2944 23.1806 49.6831C28.3314 50.0718 33.4507 48.5993 37.6078 45.5333C41.7649 42.4672 44.6837 38.0112 45.8336 32.9754C46.9836 27.9395 46.2882 22.6583 43.874 18.0917L49.2022 12.7635C49.4021 12.564 49.5477 12.3167 49.6251 12.0451C49.7025 11.7734 49.7091 11.4865 49.6444 11.2116ZM24.8437 46.3738C22.0796 46.3847 19.3492 45.7664 16.8594 44.5659C14.3696 43.3654 12.1855 41.614 10.4727 39.4445C8.75989 37.275 7.56319 34.7442 6.97321 32.0437C6.38324 29.3433 6.41547 26.544 7.06747 23.8578C7.71947 21.1717 8.97414 18.6691 10.7365 16.5396C12.4988 14.4101 14.7226 12.7095 17.2394 11.5666C19.7562 10.4238 22.5001 9.86855 25.2632 9.94305C28.0264 10.0176 30.7363 10.7198 33.1879 11.9967C33.1979 12.0364 33.1979 12.0762 33.2111 12.1159L34.5361 16.1141L31.7735 18.88C29.417 17.1166 26.48 16.3113 23.5536 16.6262C20.6273 16.9412 17.9289 18.353 16.0016 20.5775C14.0744 22.802 13.0614 25.6741 13.1666 28.6154C13.2717 31.5568 14.4873 34.3491 16.5684 36.4303C18.6496 38.5115 21.442 39.727 24.3833 39.8322C27.3247 39.9374 30.1967 38.9244 32.4212 36.9971C34.6457 35.0699 36.0576 32.3715 36.3725 29.4451C36.6875 26.5188 35.8822 23.5818 34.1187 21.2253L36.888 18.456L40.8862 19.781C40.921 19.7926 40.959 19.7893 40.9955 19.7993C42.4488 22.5711 43.1606 25.6717 43.0618 28.7998C42.9629 31.928 42.0566 34.9775 40.4311 37.6519C38.8056 40.3264 36.516 42.5351 33.7847 44.0633C31.0535 45.5916 27.9734 46.3875 24.8437 46.3738ZM33.125 28.155C33.1305 30.0063 32.5174 31.8063 31.3831 33.2693C30.2487 34.7323 28.6582 35.7744 26.8639 36.2302C25.0696 36.686 23.1746 36.5293 21.4795 35.785C19.7845 35.0407 18.3867 33.7515 17.508 32.1221C16.6294 30.4926 16.3202 28.6164 16.6297 26.7912C16.9392 24.966 17.8496 23.2965 19.2162 22.0478C20.5829 20.7991 22.3276 20.0427 24.1732 19.8988C26.0188 19.7549 27.8597 20.2317 29.4034 21.2534L25.6901 24.9668C25.4147 24.8882 25.1301 24.8464 24.8437 24.8425C24.1886 24.8425 23.5481 25.0368 23.0034 25.4008C22.4587 25.7648 22.0341 26.2821 21.7834 26.8874C21.5327 27.4927 21.4671 28.1587 21.5949 28.8013C21.7227 29.4438 22.0382 30.0341 22.5014 30.4973C22.9647 30.9606 23.5549 31.2761 24.1975 31.4039C24.8401 31.5317 25.5061 31.4661 26.1114 31.2154C26.7167 30.9647 27.234 30.5401 27.598 29.9954C27.962 29.4506 28.1562 28.8102 28.1562 28.155C28.1523 27.8687 28.1106 27.5841 28.032 27.3087L31.7453 23.5954C32.6447 24.946 33.1247 26.5324 33.125 28.155ZM40.9574 16.3228L37.7476 15.2512L36.6776 12.0397L40.6808 8.03326L41.4924 10.4597C41.5735 10.7037 41.7103 10.9255 41.892 11.1074C42.0737 11.2894 42.2952 11.4266 42.5391 11.5081L44.9639 12.3163L40.9574 16.3228Z" fill="#1A1C1E"/>
</svg>
