<svg width="53" height="53" viewBox="0 0 53 53" fill="none" xmlns="http://www.w3.org/2000/svg">
<path d="M41.9583 4.41406H11.0416C9.28457 4.41406 7.59947 5.11205 6.35704 6.35448C5.11462 7.59691 4.41663 9.282 4.41663 11.0391V41.9557C4.41663 43.7128 5.11462 45.3979 6.35704 46.6403C7.59947 47.8827 9.28457 48.5807 11.0416 48.5807H41.9583C43.7154 48.5807 45.4004 47.8827 46.6429 46.6403C47.8853 45.3979 48.5833 43.7128 48.5833 41.9557V11.0391C48.5833 9.282 47.8853 7.59691 46.6429 6.35448C45.4004 5.11205 43.7154 4.41406 41.9583 4.41406ZM44.1666 41.9557C44.1666 42.5414 43.934 43.1031 43.5198 43.5173C43.1057 43.9314 42.544 44.1641 41.9583 44.1641H11.0416C10.4559 44.1641 9.89424 43.9314 9.4801 43.5173C9.06596 43.1031 8.83329 42.5414 8.83329 41.9557V11.0391C8.83329 10.4534 9.06596 9.89168 9.4801 9.47754C9.89424 9.06339 10.4559 8.83073 11.0416 8.83073H41.9583C42.544 8.83073 43.1057 9.06339 43.5198 9.47754C43.934 9.89168 44.1666 10.4534 44.1666 11.0391V41.9557ZM26.5 17.6641C25.3286 17.6641 24.2052 18.1294 23.3769 18.9577C22.5486 19.786 22.0833 20.9094 22.0833 22.0807C22.0879 22.8515 22.2942 23.6076 22.6816 24.274C23.069 24.9403 23.6241 25.4937 24.2916 25.8791V33.1224C24.2916 33.7081 24.5243 34.2698 24.9384 34.6839C25.3526 35.0981 25.9143 35.3307 26.5 35.3307C27.0856 35.3307 27.6473 35.0981 28.0615 34.6839C28.4756 34.2698 28.7083 33.7081 28.7083 33.1224V25.8791C29.3758 25.4937 29.9309 24.9403 30.3183 24.274C30.7057 23.6076 30.912 22.8515 30.9166 22.0807C30.9166 20.9094 30.4513 19.786 29.623 18.9577C28.7947 18.1294 27.6713 17.6641 26.5 17.6641Z" fill="#1A1C1E"/>
</svg>
