<svg width="226" height="28" viewBox="0 0 226 28" fill="none" xmlns="http://www.w3.org/2000/svg">
<path fill-rule="evenodd" clip-rule="evenodd" d="M58.1006 0H62.2385C62.6641 0.00145095 63.0848 0.0896231 63.4743 0.259014C63.8639 0.428405 64.2139 0.675378 64.5027 0.984527L79.5431 17.1369L81.4042 15.1389L71.3477 4.33203H75.5116C75.9363 4.33321 76.3561 4.42129 76.7446 4.59072C77.1331 4.76016 77.482 5.00728 77.7693 5.31656L84.1611 12.179L90.5529 5.31656C90.8412 5.0068 91.1912 4.75941 91.5808 4.58997C91.9705 4.42053 92.3914 4.33271 92.8171 4.33203H96.955L86.9124 15.1328L88.7828 17.1409L103.833 0.984527C104.12 0.675253 104.469 0.428121 104.857 0.258685C105.246 0.0892491 105.666 0.0011763 106.09 0H110.228L101.582 9.28616V16.1206C101.581 17.2471 101.343 18.3611 100.882 19.3914C100.422 20.4218 99.7496 21.346 98.908 22.105C97.2747 23.5306 95.1394 24.2625 92.9644 24.1421C90.7895 24.0216 88.75 23.0586 87.2879 21.4615L84.1566 18.0966L81.0278 21.4615C79.9279 22.6958 78.4735 23.569 76.8587 23.9646C75.244 24.3602 73.5457 24.2593 71.9904 23.6755C70.4351 23.0917 69.0968 22.0526 68.154 20.697C67.2113 19.3414 66.709 17.7337 66.7141 16.0885V9.25098L58.1006 0ZM97.5482 13.6187L91.7834 19.8103C92.2695 20.0156 92.7902 20.1305 93.3192 20.1488C93.8548 20.1701 94.3894 20.086 94.8919 19.9016C95.3945 19.7171 95.855 19.4359 96.247 19.0742C96.6447 18.7072 96.9646 18.2656 97.188 17.7751C97.4114 17.2845 97.5338 16.7549 97.5482 16.2171V13.6187ZM70.748 13.5834L76.5439 19.8082C76.0562 20.0148 75.5338 20.1304 75.003 20.1488C74.4631 20.1735 73.9236 20.0912 73.4164 19.9066C72.9091 19.7221 72.4443 19.4391 72.0492 19.0742C71.6515 18.7072 71.3316 18.2656 71.1082 17.7751C70.8848 17.2845 70.7623 16.7549 70.748 16.2171V13.5834ZM84.1639 22.1094L81.4248 25.0501L84.1639 27.9972L86.9096 25.0501L84.1639 22.1094Z" fill="url(#paint0_linear_226_763)"/>
<path d="M16.7861 3.42969H12.8173L4.06639 12.2132H3.19456V3.42969H0V23.7187H3.19456V15.1797H4.30061L13.1165 23.7187H17.4432L6.77948 13.6031L16.7861 3.42969Z" fill="#0E0E0E"/>
<path d="M52.4206 2.98273C50.2997 2.93934 48.2137 3.52103 46.4281 4.65376C44.6426 5.78649 43.2381 7.41905 42.3935 9.34365C41.5489 11.2682 41.3024 13.3979 41.6854 15.4614C42.0683 17.525 43.0634 19.4292 44.544 20.9318C46.0245 22.4343 47.9236 23.4672 49.9995 23.899C52.0755 24.3308 54.2343 24.1419 56.2014 23.3565C58.1685 22.571 59.8548 21.2245 61.0457 19.4883C62.2366 17.7521 62.8783 15.7046 62.8891 13.6066C62.9238 12.2249 62.6787 10.8502 62.1684 9.56344C61.658 8.27671 60.8926 7.10391 59.9172 6.11404C58.9418 5.12417 57.7761 4.33721 56.4887 3.79946C55.2013 3.26171 53.8181 2.98402 52.4206 2.98273ZM52.4206 21.0646C48.3867 21.0646 45.2247 17.8472 45.2247 13.5809C45.2247 9.3146 48.3867 6.04571 52.4206 6.04571C56.4544 6.04571 59.649 9.26312 59.649 13.5809C59.649 17.8986 56.4805 21.0903 52.4206 21.0903V21.0646Z" fill="#0E0E0E"/>
<path d="M111.419 3.42969H108.225V23.7187H122.35V20.7844H111.419V3.42969Z" fill="#0E0E0E"/>
<path d="M151.803 3.42969H144.809V23.7187H151.803C158.608 23.7187 162.863 19.4781 162.863 13.5774C162.863 7.67667 158.608 3.42969 151.803 3.42969ZM151.803 20.8037H148.003V6.3704H151.803C156.669 6.3704 159.61 9.36903 159.61 13.5774C159.61 17.7858 156.669 20.7844 151.803 20.7844V20.8037Z" fill="#0E0E0E"/>
<path d="M193.286 15.1346H204.074V12.2325H193.286V6.3704H204.965V3.42969H190.092V23.7187H204.998V20.7844H193.286V15.1346Z" fill="#0E0E0E"/>
<path d="M129.012 15.1346H139.793V12.2325H129.012V6.3704H140.691V3.42969H125.818V23.7187H140.723V20.7844H129.012V15.1346Z" fill="#0E0E0E"/>
<path d="M219.565 15.0631C223.046 14.7157 225.206 12.4892 225.206 9.27181C225.206 5.82274 222.668 3.48047 218.634 3.48047H209.09V23.7695H212.284V15.1339H215.973L222.291 23.718H226L219.565 15.0631ZM212.284 12.2318V6.36327H218.687C220.769 6.36327 222.011 7.59232 222.011 9.28468C222.011 10.977 220.769 12.2318 218.687 12.2318H212.284Z" fill="#0E0E0E"/>
<path d="M35.1207 18.7639L23.5526 3.42969H20.1954V23.7187H23.416V8.37163L35.0036 23.7187H38.3218V3.42969H35.1207V18.7639Z" fill="#0E0E0E"/>
<path d="M175.219 12.2337V15.2066H183.163C182.564 18.72 179.968 21.1138 176.292 21.1138C172.141 21.1138 168.947 17.8964 168.947 13.6044C168.947 9.31234 172.083 6.09492 176.104 6.09492C177.279 6.03658 178.45 6.27537 179.507 6.78875C180.563 7.30213 181.47 8.07319 182.141 9.0292H185.635C184.21 5.09753 180.385 2.98047 176.097 2.98047C173.308 3.05928 170.661 4.21343 168.721 6.19644C166.78 8.17946 165.701 10.8342 165.713 13.5936C165.725 16.3531 166.827 18.9986 168.784 20.9652C170.742 22.9318 173.399 24.0636 176.188 24.1189C182.135 24.1189 186.286 19.5437 186.286 13.5786C186.286 13.2247 186.286 12.7421 186.227 12.208L175.219 12.2337Z" fill="#0E0E0E"/>
<defs>
<linearGradient id="paint0_linear_226_763" x1="98.9594" y1="27.5319" x2="98.9594" y2="2.97259" gradientUnits="userSpaceOnUse">
<stop stop-color="#F607FF"/>
<stop offset="0.04" stop-color="#E211FE"/>
<stop offset="0.13" stop-color="#B727FB"/>
<stop offset="0.22" stop-color="#9639F8"/>
<stop offset="0.31" stop-color="#7E45F6"/>
<stop offset="0.38" stop-color="#6F4CF5"/>
<stop offset="0.45" stop-color="#6A4FF5"/>
<stop offset="0.55" stop-color="#5C6EF3"/>
<stop offset="0.76" stop-color="#40AEEF"/>
<stop offset="0.92" stop-color="#2FD6EC"/>
<stop offset="1" stop-color="#28E5EB"/>
</linearGradient>
</defs>
</svg>
