<svg width="44" height="44" viewBox="0 0 44 44" fill="none" xmlns="http://www.w3.org/2000/svg">
<path d="M39.7293 19.1539L37.9408 26.7824C36.4078 33.3706 33.3783 36.0351 27.6843 35.4876C26.7718 35.4146 25.7863 35.2504 24.7278 34.9949L21.6618 34.2649C14.0516 32.4581 11.6973 28.6986 13.4858 21.0701L15.2743 13.4234C15.6393 11.8721 16.0773 10.5216 16.6248 9.40836C18.7601 4.99186 22.3918 3.80561 28.4873 5.24736L31.5351 5.95911C39.1818 7.74761 41.5178 11.5254 39.7293 19.1539Z" stroke="#6F4CF5" stroke-width="3" stroke-linecap="round" stroke-linejoin="round"/>
<path d="M27.6848 35.4874C26.5533 36.254 25.1298 36.8927 23.396 37.4585L20.5125 38.4075C13.2673 40.7435 9.45303 38.7907 7.09878 31.5455L4.76278 24.3367C2.42678 17.0915 4.36128 13.259 11.6065 10.923L14.49 9.97395C15.2383 9.7367 15.95 9.53595 16.6253 9.4082C16.0778 10.5215 15.6398 11.872 15.2748 13.4232L13.4863 21.07C11.6978 28.6985 14.052 32.458 21.6623 34.2647L24.7283 34.9947C25.7868 35.2502 26.7723 35.4144 27.6848 35.4874Z" fill="#6F4CF5" stroke="#6F4CF5" stroke-width="3" stroke-linecap="round" stroke-linejoin="round"/>
<path d="M23.2681 15.666L32.1193 17.9108" stroke="#6F4CF5" stroke-width="3" stroke-linecap="round" stroke-linejoin="round"/>
<path d="M21.4795 22.7285L26.772 24.079" stroke="#6F4CF5" stroke-width="3" stroke-linecap="round" stroke-linejoin="round"/>
</svg>
