<svg width="49" height="50" viewBox="0 0 49 50" fill="none" xmlns="http://www.w3.org/2000/svg">
<path d="M17.5582 32.2787L6.17383 43.6631M24.2351 14.2175L21.0938 17.3588C20.8376 17.615 20.7094 17.7431 20.5635 17.8449C20.4339 17.9353 20.2942 18.0101 20.1471 18.0678C19.9814 18.1328 19.8038 18.1683 19.4484 18.2394L12.0737 19.7143C10.1572 20.0976 9.19892 20.2893 8.75061 20.7945C8.36006 21.2347 8.18171 21.8237 8.26252 22.4066C8.35527 23.0756 9.04628 23.7666 10.4283 25.1487L24.6883 39.4087C26.0704 40.7907 26.7614 41.4817 27.4304 41.5745C28.0133 41.6553 28.6023 41.4769 29.0425 41.0864C29.5477 40.6381 29.7394 39.6798 30.1227 37.7633L31.5976 30.3886C31.6687 30.0332 31.7042 29.8556 31.7692 29.6899C31.8269 29.5428 31.9017 29.4031 31.9921 29.2735C32.0939 29.1276 32.222 28.9994 32.4782 28.7432L35.6195 25.6019C35.7833 25.4381 35.8653 25.3562 35.9553 25.2846C36.0353 25.2211 36.12 25.1638 36.2087 25.1131C36.3085 25.056 36.415 25.0104 36.628 24.9191L41.6479 22.7678C43.1124 22.1401 43.8446 21.8263 44.1772 21.3192C44.4681 20.8757 44.5722 20.3354 44.4668 19.8156C44.3463 19.2212 43.783 18.6579 42.6563 17.5312L32.3058 7.18067C31.1791 6.05402 30.6158 5.4907 30.0214 5.3702C29.5016 5.26484 28.9613 5.3689 28.5178 5.65977C28.0107 5.99239 27.6969 6.72464 27.0692 8.18914L24.9179 13.209C24.8266 13.422 24.781 13.5285 24.7239 13.6283C24.6732 13.717 24.6159 13.8017 24.5524 13.8817C24.4808 13.9717 24.3989 14.0537 24.2351 14.2175Z" stroke="#6A4FF5" stroke-width="3" stroke-linecap="round" stroke-linejoin="round"/>
</svg>
