<svg width="49" height="50" viewBox="0 0 49 50" fill="none" xmlns="http://www.w3.org/2000/svg">
<path d="M10.8676 6.88867H9.2576C8.13049 6.88867 7.56694 6.88867 7.13644 7.10802C6.75777 7.30097 6.44989 7.60884 6.25695 7.98752C6.0376 8.41801 6.0376 8.98157 6.0376 10.1087V11.7187C6.0376 12.8458 6.0376 13.4093 6.25695 13.8398C6.44989 14.2185 6.75777 14.5264 7.13644 14.7193C7.56694 14.9387 8.13049 14.9387 9.2576 14.9387H10.0626H10.8676C11.9947 14.9387 12.5583 14.9387 12.9888 14.7193C13.3674 14.5264 13.6753 14.2185 13.8682 13.8398C14.0876 13.4093 14.0876 12.8458 14.0876 11.7187V10.9137V10.1087C14.0876 8.98157 14.0876 8.41801 13.8682 7.98752C13.6753 7.60884 13.3674 7.30097 12.9888 7.10802C12.5583 6.88867 11.9947 6.88867 10.8676 6.88867Z" fill="#6A4FF5"/>
<path d="M39.0426 6.88867H37.4326C36.3055 6.88867 35.7419 6.88867 35.3114 7.10802C34.9328 7.30097 34.6249 7.60884 34.4319 7.98752C34.2126 8.41801 34.2126 8.98157 34.2126 10.1087V10.9137V11.7187C34.2126 12.8458 34.2126 13.4093 34.4319 13.8398C34.6249 14.2185 34.9328 14.5264 35.3114 14.7193C35.7419 14.9387 36.3055 14.9387 37.4326 14.9387H38.2376H39.0426C40.1697 14.9387 40.7333 14.9387 41.1638 14.7193C41.5424 14.5264 41.8503 14.2185 42.0432 13.8398C42.2626 13.4093 42.2626 12.8458 42.2626 11.7187V10.1087C42.2626 8.98157 42.2626 8.41801 42.0432 7.98752C41.8503 7.60884 41.5424 7.30097 41.1638 7.10802C40.7333 6.88867 40.1697 6.88867 39.0426 6.88867Z" fill="#6A4FF5"/>
<path d="M38.2376 35.0637H37.4326C36.3055 35.0637 35.7419 35.0637 35.3114 35.283C34.9328 35.476 34.6249 35.7838 34.4319 36.1625C34.2126 36.593 34.2126 37.1566 34.2126 38.2837V39.0887V39.8937C34.2126 41.0208 34.2126 41.5843 34.4319 42.0148C34.6249 42.3935 34.9328 42.7014 35.3114 42.8943C35.7419 43.1137 36.3055 43.1137 37.4326 43.1137H39.0426C40.1697 43.1137 40.7333 43.1137 41.1638 42.8943C41.5424 42.7014 41.8503 42.3935 42.0432 42.0148C42.2626 41.5843 42.2626 41.0208 42.2626 39.8937V38.2837C42.2626 37.1566 42.2626 36.593 42.0432 36.1625C41.8503 35.7838 41.5424 35.476 41.1638 35.283C40.7333 35.0637 40.1697 35.0637 39.0426 35.0637H38.2376Z" fill="#6A4FF5"/>
<path d="M10.0626 35.0637H9.2576C8.13049 35.0637 7.56694 35.0637 7.13644 35.283C6.75777 35.476 6.44989 35.7838 6.25695 36.1625C6.0376 36.593 6.0376 37.1566 6.0376 38.2837V39.8937C6.0376 41.0208 6.0376 41.5843 6.25695 42.0148C6.44989 42.3935 6.75777 42.7014 7.13644 42.8943C7.56694 43.1137 8.13049 43.1137 9.2576 43.1137H10.8676C11.9947 43.1137 12.5583 43.1137 12.9888 42.8943C13.3674 42.7014 13.6753 42.3935 13.8682 42.0148C14.0876 41.5843 14.0876 41.0208 14.0876 39.8937V39.0887V38.2837C14.0876 37.1566 14.0876 36.593 13.8682 36.1625C13.6753 35.7838 13.3674 35.476 12.9888 35.283C12.5583 35.0637 11.9947 35.0637 10.8676 35.0637H10.0626Z" fill="#6A4FF5"/>
<path d="M38.2376 14.9387V35.0637M38.2376 14.9387H37.4326M38.2376 14.9387H39.0426M38.2376 35.0637H37.4326M38.2376 35.0637H39.0426M10.0626 14.9387V35.0637M10.0626 14.9387H9.2576M10.0626 14.9387H10.8676M10.0626 35.0637H9.2576M10.0626 35.0637H10.8676M34.2126 10.9137L14.0876 10.9137M34.2126 10.9137V10.1087M34.2126 10.9137V11.7187M14.0876 10.9137V11.7187M14.0876 10.9137V10.1087M34.2126 39.0887H14.0876M34.2126 39.0887V38.2837M34.2126 39.0887V39.8937M14.0876 39.0887V39.8937M14.0876 39.0887V38.2837M9.2576 14.9387H10.8676M9.2576 14.9387C8.13049 14.9387 7.56694 14.9387 7.13644 14.7193C6.75777 14.5264 6.44989 14.2185 6.25695 13.8398C6.0376 13.4093 6.0376 12.8458 6.0376 11.7187V10.1087C6.0376 8.98157 6.0376 8.41801 6.25695 7.98752C6.44989 7.60884 6.75777 7.30097 7.13644 7.10802C7.56694 6.88867 8.13049 6.88867 9.2576 6.88867H10.8676C11.9947 6.88867 12.5583 6.88867 12.9888 7.10802C13.3674 7.30097 13.6753 7.60884 13.8682 7.98752C14.0876 8.41801 14.0876 8.98157 14.0876 10.1087M14.0876 11.7187V10.1087M14.0876 11.7187C14.0876 12.8458 14.0876 13.4093 13.8682 13.8398C13.6753 14.2185 13.3674 14.5264 12.9888 14.7193C12.5583 14.9387 11.9947 14.9387 10.8676 14.9387M14.0876 39.8937V38.2837M14.0876 39.8937C14.0876 41.0208 14.0876 41.5843 13.8682 42.0148C13.6753 42.3935 13.3674 42.7014 12.9888 42.8943C12.5583 43.1137 11.9947 43.1137 10.8676 43.1137H9.2576C8.13049 43.1137 7.56694 43.1137 7.13644 42.8943C6.75777 42.7014 6.44989 42.3935 6.25695 42.0148C6.0376 41.5843 6.0376 41.0208 6.0376 39.8937V38.2837C6.0376 37.1566 6.0376 36.593 6.25695 36.1625C6.44989 35.7838 6.75777 35.476 7.13644 35.283C7.56694 35.0637 8.13049 35.0637 9.2576 35.0637M10.8676 35.0637H9.2576M10.8676 35.0637C11.9947 35.0637 12.5583 35.0637 12.9888 35.283C13.3674 35.476 13.6753 35.7838 13.8682 36.1625C14.0876 36.593 14.0876 37.1566 14.0876 38.2837M37.4326 14.9387H39.0426M37.4326 14.9387C36.3055 14.9387 35.7419 14.9387 35.3114 14.7193C34.9328 14.5264 34.6249 14.2185 34.4319 13.8398C34.2126 13.4093 34.2126 12.8458 34.2126 11.7187M34.2126 11.7187V10.1087M39.0426 14.9387C40.1697 14.9387 40.7333 14.9387 41.1638 14.7193C41.5424 14.5264 41.8503 14.2185 42.0432 13.8398C42.2626 13.4093 42.2626 12.8458 42.2626 11.7187V10.1087C42.2626 8.98157 42.2626 8.41801 42.0432 7.98752C41.8503 7.60884 41.5424 7.30097 41.1638 7.10802C40.7333 6.88867 40.1697 6.88867 39.0426 6.88867H37.4326C36.3055 6.88867 35.7419 6.88867 35.3114 7.10802C34.9328 7.30097 34.6249 7.60884 34.4319 7.98752C34.2126 8.41801 34.2126 8.98157 34.2126 10.1087M34.2126 39.8937V38.2837M34.2126 39.8937C34.2126 41.0208 34.2126 41.5843 34.4319 42.0148C34.6249 42.3935 34.9328 42.7014 35.3114 42.8943C35.7419 43.1137 36.3055 43.1137 37.4326 43.1137H39.0426C40.1697 43.1137 40.7333 43.1137 41.1638 42.8943C41.5424 42.7014 41.8503 42.3935 42.0432 42.0148C42.2626 41.5843 42.2626 41.0208 42.2626 39.8937V38.2837C42.2626 37.1566 42.2626 36.593 42.0432 36.1625C41.8503 35.7838 41.5424 35.476 41.1638 35.283C40.7333 35.0637 40.1697 35.0637 39.0426 35.0637M39.0426 35.0637H37.4326M37.4326 35.0637C36.3055 35.0637 35.7419 35.0637 35.3114 35.283C34.9328 35.476 34.6249 35.7838 34.4319 36.1625C34.2126 36.593 34.2126 37.1566 34.2126 38.2837" stroke="#6A4FF5" stroke-width="3.5" stroke-linecap="round" stroke-linejoin="round"/>
</svg>
