<svg width="442" height="434" viewBox="0 0 442 434" fill="none" xmlns="http://www.w3.org/2000/svg">
<path d="M376.369 433.13C376.369 433.275 304.601 433.399 216.1 433.399C127.599 433.399 55.7998 433.275 55.7998 433.13C55.7998 432.985 127.558 432.861 216.1 432.861C304.642 432.861 376.369 432.996 376.369 433.13Z" fill="#263238"/>
<path d="M306.441 306.606C290.473 295.454 286.856 274.753 287.486 256.139C287.589 253.038 287.248 249.752 288.726 247.034C290.204 244.315 293.656 242.445 296.436 243.747C298.741 244.832 299.744 247.519 301.036 249.741C302.759 252.701 305.286 255.113 308.322 256.697C310.296 257.731 312.746 258.351 314.699 257.276C317.386 255.798 317.696 252.108 317.675 249.008C317.675 243.241 317.641 237.48 317.572 231.727C317.386 228.638 317.7 225.539 318.502 222.549C319.463 219.614 321.603 216.896 324.528 216.069C327.453 215.242 331.101 216.948 331.762 219.966C331.876 221.244 331.907 222.528 331.855 223.81C331.938 225.102 332.538 226.518 333.747 226.911C334.956 227.304 336.217 226.404 337.147 225.495C340.33 222.394 342.501 218.353 344.516 214.364C346.531 210.374 348.506 206.271 351.399 202.871C354.293 199.471 358.293 196.773 362.768 196.515C367.243 196.256 371.905 199.006 373.021 203.346C374.137 207.687 371.605 212.121 368.887 215.645C364.785 220.877 359.95 225.489 354.531 229.34C353.473 229.917 352.629 230.819 352.123 231.913C351.451 233.98 353.404 236.047 355.44 236.698C357.745 237.463 360.246 237.225 362.675 237.515C365.104 237.804 367.688 238.858 368.608 241.132C369.868 244.295 367.223 247.602 364.629 249.772C359.42 254.113 353.505 257.529 347.141 259.87C344.868 260.697 342.48 261.431 340.64 263.022C338.801 264.614 337.705 267.394 338.811 269.575C339.917 271.756 342.759 272.448 345.147 272.004C347.534 271.559 349.653 270.278 351.926 269.42C356.174 267.818 361.652 268.107 364.329 271.776C365.158 273.04 365.683 274.479 365.862 275.98C366.042 277.481 365.871 279.003 365.362 280.427C364.328 283.26 362.736 285.857 360.68 288.065C353.911 296.152 345.116 302.298 335.194 305.872C325.344 309.283 316.218 310.213 306.431 306.627" fill="#6A4FF5"/>
<path d="M368.473 199.068C368.473 199.068 368.38 199.172 368.173 199.358L367.253 200.174C366.447 200.898 365.259 201.952 363.76 203.347C359.511 207.292 355.566 211.552 351.957 216.091C349.652 218.953 347.265 222.199 344.722 225.723C342.18 229.247 339.555 233.051 336.95 237.092C334.174 241.353 331.631 245.763 329.333 250.3C328.134 252.667 327.08 255.137 325.995 257.659L322.791 265.359C318.568 275.057 314.89 284.984 311.774 295.093C309.264 303.364 307.534 311.852 306.606 320.446C306.005 326.245 305.908 332.086 306.317 337.902C306.482 339.969 306.637 341.55 306.782 342.625C306.844 343.142 306.885 343.555 306.926 343.855V344.279C306.882 344.144 306.851 344.006 306.833 343.865C306.782 343.566 306.72 343.163 306.637 342.646C306.451 341.612 306.255 339.979 306.069 337.912C305.57 332.085 305.604 326.225 306.172 320.404C307.042 311.774 308.734 303.247 311.226 294.938C314.316 284.801 317.984 274.849 322.212 265.131L325.499 257.463C326.584 254.951 327.649 252.46 328.858 250.083C331.171 245.532 333.735 241.112 336.537 236.844C339.183 232.71 341.849 228.968 344.361 225.475C346.872 221.982 349.301 218.716 351.595 215.863C355.24 211.337 359.239 207.107 363.553 203.213C365.083 201.838 366.302 200.805 367.129 200.112L368.09 199.337C368.208 199.234 368.336 199.144 368.473 199.068Z" fill="#263238"/>
<path d="M328.992 250.061C328.847 249.635 328.746 249.195 328.693 248.748C328.527 247.891 328.341 246.681 328.124 245.11C327.68 242.01 327.225 237.762 326.739 233.06C326.254 228.357 325.706 224.099 325.251 221.029C325.013 219.5 324.807 218.27 324.662 217.412C324.549 216.973 324.49 216.522 324.486 216.068C324.664 216.482 324.793 216.916 324.869 217.36C325.096 218.208 325.354 219.427 325.644 220.967C326.233 224.068 326.812 228.285 327.297 232.998C327.783 237.71 328.197 241.845 328.517 245.059C328.672 246.506 328.806 247.736 328.91 248.717C328.99 249.161 329.018 249.611 328.992 250.061Z" fill="#263238"/>
<path d="M368.763 242.64C368.26 242.75 367.748 242.812 367.233 242.826C366.2 242.919 364.732 243.043 362.913 243.25C359.275 243.643 354.273 244.366 348.785 245.4C343.297 246.433 338.367 247.601 334.822 248.5C333.055 248.955 331.628 249.369 330.688 249.648C330.186 249.826 329.666 249.951 329.138 250.02C329.615 249.78 330.113 249.582 330.626 249.431C331.597 249.09 333.003 248.614 334.76 248.108C338.284 247.074 343.214 245.844 348.723 244.79C353.389 243.898 358.098 243.242 362.831 242.826C364.66 242.671 366.138 242.609 367.171 242.589C367.702 242.553 368.236 242.57 368.763 242.64Z" fill="#263238"/>
<path d="M311.733 294.215C311.623 294.065 311.533 293.902 311.464 293.729L310.782 292.293C310.193 291.042 309.397 289.192 308.446 286.929C306.524 282.381 304.075 276.014 301.47 268.945C298.866 261.876 296.468 255.509 294.649 250.91C293.76 248.678 293.026 246.848 292.479 245.484L291.9 244.006C291.819 243.836 291.764 243.655 291.734 243.469C291.845 243.618 291.935 243.782 292.003 243.955L292.685 245.391C293.264 246.642 294.07 248.492 295.021 250.755C296.943 255.303 299.393 261.669 301.997 268.738C304.602 275.808 307 282.174 308.819 286.774C309.707 289.006 310.441 290.835 310.979 292.2C311.216 292.789 311.413 293.233 311.568 293.677C311.648 293.848 311.704 294.029 311.733 294.215Z" fill="#263238"/>
<path d="M364.526 277.191C364.36 277.286 364.183 277.359 363.998 277.408L362.469 277.925L356.815 279.755C352.041 281.305 345.447 283.517 338.212 285.956C330.977 288.395 324.352 290.565 319.546 292.012C317.149 292.746 315.195 293.304 313.841 293.676L312.281 294.079C312.099 294.137 311.912 294.175 311.723 294.193C311.888 294.098 312.065 294.025 312.25 293.976L313.779 293.459L319.433 291.63C324.208 290.079 330.802 287.868 338.036 285.429C345.271 282.989 351.885 280.819 356.691 279.372C359.099 278.638 361.043 278.08 362.407 277.708L363.967 277.305C364.149 277.247 364.336 277.209 364.526 277.191Z" fill="#263238"/>
<path d="M342.986 26.4894L337.663 28.3911L335.379 21.4355C331.183 8.60942 317.809 1.79848 305.521 6.12896C293.232 10.4594 286.69 24.5257 290.886 37.3518L293.17 44.3074L287.827 46.2194C285.789 47.0097 284.135 48.5548 283.207 50.5335C282.279 52.5122 282.15 54.7724 282.845 56.8441L297.656 102.102C297.963 103.128 298.473 104.081 299.157 104.906C299.84 105.73 300.682 106.409 301.632 106.901C302.583 107.394 303.623 107.691 304.69 107.773C305.758 107.856 306.831 107.724 307.846 107.384L363.005 87.6535C365.07 86.8646 366.748 85.3058 367.687 83.3051C368.625 81.3043 368.752 79.0174 368.039 76.9255L353.218 31.6674C352.903 30.6447 352.384 29.696 351.694 28.8779C351.004 28.0598 350.156 27.3892 349.201 26.9059C348.246 26.4226 347.204 26.1367 346.136 26.0651C345.068 25.9936 343.997 26.1379 342.986 26.4894ZM300.942 33.7241C299.811 30.3891 300.014 26.7457 301.509 23.5572C303.004 20.3686 305.675 17.8823 308.962 16.6193C310.586 16.0639 312.304 15.8412 314.015 15.9644C315.727 16.0876 317.395 16.5543 318.922 17.3366C320.449 18.1189 321.803 19.2007 322.903 20.5175C324.002 21.8344 324.826 23.3592 325.323 25.0012L327.597 31.9568L303.216 40.6798L300.942 33.7241ZM331.948 73.8869L335.731 85.4418C335.8 85.6735 335.778 85.923 335.668 86.1386C335.558 86.3541 335.37 86.5191 335.142 86.5993L329.84 88.4907C329.629 88.5492 329.403 88.5238 329.21 88.4197C329.018 88.3157 328.873 88.1411 328.806 87.9326L324.992 76.4294C322.889 76.3148 320.872 75.5606 319.209 74.2676C317.547 72.9747 316.319 71.2047 315.691 69.1947C314.792 66.5375 314.956 63.6355 316.148 61.0964C317.341 58.5573 319.469 56.578 322.088 55.5729C323.381 55.1311 324.75 54.9541 326.113 55.0526C327.476 55.151 328.805 55.5228 330.021 56.1458C331.237 56.7689 332.316 57.6304 333.192 58.679C334.068 59.7276 334.724 60.9419 335.121 62.2494C335.786 64.2912 335.841 66.4826 335.279 68.5552C334.717 70.6277 333.563 72.4914 331.958 73.918L331.948 73.8869Z" fill="#6A4FF5"/>
<path d="M337.426 28.2673C337.426 28.412 327.556 32.1224 315.278 36.5356C302.999 40.9487 292.984 44.4937 292.933 44.3904C292.881 44.287 302.803 40.5456 315.092 36.1221C327.38 31.6987 337.374 28.133 337.426 28.2673Z" fill="#263238"/>
<path d="M349.146 30.168C349.192 30.2577 349.23 30.351 349.26 30.447C349.342 30.6537 349.435 30.9224 349.559 31.2532C349.828 32.0076 350.2 33.0515 350.665 34.3537L354.634 45.9086C356.288 50.8075 358.262 56.6159 360.453 63.0651C361.486 66.3 362.706 69.6693 363.843 73.2143C364.451 75.0411 364.714 76.9653 364.618 78.8884C364.53 79.8885 364.246 80.8615 363.781 81.7513C363.284 82.6381 362.621 83.4207 361.827 84.056C360.231 85.2216 358.458 86.1252 356.577 86.7329L351.254 88.6449L341.178 92.2519L324.114 98.329L312.59 102.38L309.49 103.414L308.663 103.683C308.574 103.722 308.48 103.746 308.384 103.755C308.384 103.755 308.466 103.755 308.642 103.631L309.448 103.311L312.549 102.143L324.011 97.926L341.043 91.7248L351.099 88.0868L356.422 86.1644C358.25 85.5815 359.971 84.7054 361.517 83.5703C362.256 82.9807 362.873 82.2543 363.336 81.4309C363.774 80.608 364.038 79.7039 364.112 78.7747C364.207 76.9218 363.954 75.0674 363.367 73.3074C362.251 69.7934 361.073 66.3931 360.008 63.1581C357.859 56.6986 355.874 50.8695 354.303 45.9706C352.732 41.0717 351.409 37.1339 350.5 34.3641C350.066 33.0102 349.735 31.956 349.466 31.1912L349.218 30.3643C349.187 30.3017 349.163 30.2359 349.146 30.168Z" fill="#263238"/>
<path d="M320.042 15.9162C320.042 15.9162 319.494 15.6475 318.481 15.234C317.038 14.6793 315.511 14.3719 313.965 14.3245C311.674 14.246 309.393 14.6766 307.288 15.5854C304.729 16.7171 302.54 18.5476 300.974 20.8668C299.397 23.1793 298.55 25.9122 298.545 28.7112C298.566 31.0054 298.914 33.2848 299.578 35.4808C300.116 37.3618 300.674 38.8605 301.046 39.9043C301.265 40.4345 301.445 40.9804 301.583 41.5373C301.29 41.0416 301.044 40.519 300.849 39.9767C300.426 38.9431 299.816 37.4755 299.217 35.5842C298.481 33.3651 298.08 31.0486 298.028 28.7112C298 25.8064 298.866 22.9633 300.508 20.567C302.13 18.1632 304.408 16.2761 307.071 15.1307C309.242 14.2169 311.593 13.8138 313.944 13.9525C315.524 14.033 317.075 14.4007 318.523 15.0377C318.91 15.2162 319.283 15.4235 319.639 15.6578C319.786 15.7224 319.922 15.8096 320.042 15.9162Z" fill="#263238"/>
<path d="M320.517 56.3591C320.682 56.2591 320.855 56.1727 321.034 56.1007C321.551 55.8673 322.087 55.6771 322.636 55.5323C323.507 55.2752 324.405 55.1225 325.312 55.0775C326.546 55.0112 327.781 55.1976 328.94 55.6253C331.586 56.5555 334.015 59.253 335.214 62.86C335.789 64.7957 335.789 66.8567 335.214 68.7924C334.576 70.8933 333.433 72.806 331.886 74.3631L331.948 74.0841C333.322 77.8565 334.821 81.9492 336.371 86.2177L336.464 86.4761L336.206 86.5691L333.839 87.3546L328.671 89.0806L328.413 89.1632L328.33 88.9049C326.914 84.6261 325.364 80.6366 324.196 76.7196L324.424 76.8953C322.403 76.7275 320.477 75.9691 318.884 74.7145C317.443 73.6047 316.261 72.1939 315.422 70.5804C314.664 69.1496 314.287 67.5481 314.326 65.9296C314.374 64.2753 314.787 62.6522 315.536 61.1763C316.284 59.7004 317.35 58.4084 318.657 57.3926C319.194 56.9561 319.798 56.6073 320.445 56.3591C319.861 56.7055 319.295 57.0815 318.75 57.4856C317.314 58.6999 316.215 60.2621 315.556 62.0228C314.991 63.3505 314.726 64.787 314.781 66.229C314.837 67.6711 315.211 69.083 315.876 70.3634C316.702 71.9155 317.855 73.2697 319.256 74.3321C320.775 75.5246 322.612 76.2435 324.537 76.3992H324.713L324.765 76.5542C325.902 80.3989 327.462 84.4194 328.899 88.7188L328.558 88.5535L333.725 86.8275L336.082 86.0317L335.916 86.383C334.376 82.1146 332.888 78.0115 331.524 74.2391V74.0841L331.648 73.9601C333.15 72.4675 334.271 70.6346 334.914 68.6167C335.462 66.7651 335.462 64.7943 334.914 62.9427C333.787 59.47 331.462 56.8345 328.94 55.9044C327.824 55.4739 326.632 55.2735 325.436 55.3152C324.544 55.3357 323.656 55.457 322.791 55.677C321.251 56.0594 320.527 56.4108 320.517 56.3591Z" fill="#263238"/>
<path d="M288.571 354.778L185.332 354.302C179.37 354.269 173.665 351.872 169.47 347.636C165.274 343.4 162.932 337.671 162.956 331.709L164.052 72.904C164.064 69.9503 164.658 67.0279 165.8 64.3039C166.943 61.5799 168.611 59.1077 170.709 57.0287C172.807 54.9497 175.294 53.3046 178.029 52.1874C180.763 51.0702 183.691 50.5029 186.645 50.5179L289.873 50.9933C295.835 51.0234 301.542 53.4185 305.739 57.6527C309.936 61.8869 312.281 67.6138 312.259 73.5758L311.164 332.371C311.152 335.326 310.558 338.249 309.416 340.974C308.274 343.699 306.606 346.173 304.508 348.253C302.41 350.334 299.923 351.981 297.189 353.101C294.454 354.22 291.526 354.79 288.571 354.778Z" fill="#455A64"/>
<path d="M289.718 59.8927H269.709C269.056 59.9048 268.412 60.0454 267.814 60.3065C267.215 60.5675 266.674 60.944 266.221 61.4143C265.768 61.8845 265.412 62.4395 265.174 63.0473C264.935 63.6552 264.819 64.3041 264.831 64.957V68.5847C264.843 69.237 264.727 69.8854 264.488 70.4927C264.25 71.1 263.894 71.6542 263.44 72.1237C262.987 72.5931 262.446 72.9686 261.847 73.2285C261.249 73.4885 260.605 73.6278 259.953 73.6386L220.947 73.4629C219.628 73.4277 218.376 72.8703 217.468 71.913C216.559 70.9557 216.067 69.6768 216.1 68.3573V64.7296C216.134 63.4118 215.643 62.1344 214.737 61.1774C213.83 60.2205 212.581 59.6618 211.263 59.624H204.225L186.707 59.5413C182.54 59.5165 178.533 61.1438 175.564 64.0668C172.594 66.9899 170.904 70.9706 170.863 75.1372L169.829 327.752C169.82 329.819 170.217 331.868 171 333.781C171.782 335.694 172.933 337.435 174.388 338.903C175.843 340.372 177.573 341.539 179.479 342.339C181.385 343.139 183.43 343.555 185.498 343.565L288.519 344.04C290.588 344.05 292.638 343.652 294.553 342.869C296.467 342.086 298.209 340.934 299.678 339.478C301.148 338.022 302.316 336.291 303.116 334.384C303.916 332.476 304.333 330.43 304.343 328.362L305.376 75.747C305.401 71.5686 303.766 67.5514 300.829 64.5784C297.893 61.6054 293.897 59.92 289.718 59.8927Z" fill="white"/>
<path d="M275.859 310.337L199.254 310.006C198.458 310.006 197.817 309.138 197.827 308.084L197.91 288.043C197.91 287.01 198.561 286.121 199.357 286.121L275.962 286.472C276.403 286.549 276.797 286.792 277.063 287.152C277.329 287.513 277.445 287.961 277.388 288.405L277.316 308.425C277.316 309.489 276.654 310.347 275.859 310.337Z" fill="#6A4FF5"/>
<path d="M222.544 300.123C222.121 300.123 221.715 300.055 221.324 299.92C220.94 299.779 220.641 299.6 220.43 299.383L220.666 298.92C220.866 299.115 221.135 299.28 221.471 299.416C221.812 299.546 222.17 299.611 222.544 299.611C222.902 299.611 223.192 299.567 223.414 299.481C223.642 299.388 223.807 299.267 223.91 299.115C224.019 298.963 224.073 298.795 224.073 298.611C224.073 298.388 224.008 298.209 223.878 298.074C223.753 297.938 223.588 297.833 223.382 297.757C223.176 297.675 222.948 297.605 222.699 297.545C222.449 297.486 222.2 297.423 221.951 297.358C221.701 297.288 221.471 297.196 221.259 297.082C221.053 296.968 220.885 296.819 220.755 296.635C220.631 296.445 220.568 296.198 220.568 295.895C220.568 295.613 220.641 295.355 220.788 295.122C220.94 294.884 221.17 294.694 221.479 294.553C221.788 294.407 222.184 294.334 222.666 294.334C222.986 294.334 223.303 294.38 223.617 294.472C223.932 294.558 224.203 294.68 224.431 294.838L224.227 295.317C223.983 295.155 223.723 295.036 223.447 294.96C223.176 294.884 222.913 294.846 222.658 294.846C222.316 294.846 222.035 294.892 221.812 294.984C221.59 295.076 221.425 295.201 221.316 295.358C221.213 295.51 221.162 295.683 221.162 295.878C221.162 296.101 221.224 296.28 221.349 296.415C221.479 296.551 221.647 296.656 221.853 296.732C222.064 296.808 222.295 296.876 222.544 296.936C222.794 296.995 223.04 297.06 223.284 297.131C223.533 297.201 223.761 297.293 223.967 297.407C224.179 297.516 224.347 297.662 224.471 297.846C224.601 298.031 224.666 298.272 224.666 298.57C224.666 298.846 224.591 299.104 224.439 299.342C224.287 299.575 224.054 299.765 223.739 299.912C223.43 300.053 223.032 300.123 222.544 300.123ZM225.977 300.074V294.382H226.579V300.074H225.977ZM228.431 300.074V294.382H228.927L232.855 299.326H232.594V294.382H233.188V300.074H232.692L228.773 295.13H229.033V300.074H228.431ZM237.542 300.123C237.108 300.123 236.707 300.053 236.339 299.912C235.975 299.765 235.658 299.562 235.387 299.302C235.122 299.042 234.913 298.735 234.761 298.383C234.615 298.031 234.542 297.646 234.542 297.228C234.542 296.811 234.615 296.426 234.761 296.074C234.913 295.721 235.124 295.415 235.395 295.155C235.666 294.895 235.984 294.694 236.347 294.553C236.715 294.407 237.117 294.334 237.55 294.334C237.984 294.334 238.38 294.401 238.737 294.537C239.101 294.672 239.41 294.878 239.664 295.155L239.29 295.537C239.052 295.298 238.789 295.128 238.502 295.025C238.214 294.922 237.905 294.87 237.575 294.87C237.222 294.87 236.897 294.93 236.599 295.049C236.306 295.163 236.049 295.328 235.826 295.545C235.61 295.757 235.439 296.006 235.314 296.293C235.195 296.575 235.135 296.887 235.135 297.228C235.135 297.564 235.195 297.876 235.314 298.163C235.439 298.451 235.61 298.703 235.826 298.92C236.049 299.131 236.306 299.296 236.599 299.416C236.897 299.529 237.22 299.586 237.566 299.586C237.892 299.586 238.198 299.538 238.485 299.44C238.778 299.342 239.046 299.177 239.29 298.944L239.632 299.399C239.361 299.638 239.044 299.819 238.68 299.944C238.317 300.063 237.938 300.123 237.542 300.123ZM239.054 299.326V297.228H239.632V299.399L239.054 299.326ZM245.756 300.123C245.03 300.123 244.458 299.914 244.04 299.497C243.623 299.079 243.414 298.462 243.414 297.643V294.382H244.016V297.619C244.016 298.291 244.168 298.787 244.471 299.107C244.775 299.426 245.203 299.586 245.756 299.586C246.314 299.586 246.745 299.426 247.049 299.107C247.352 298.787 247.504 298.291 247.504 297.619V294.382H248.09V297.643C248.09 298.462 247.881 299.079 247.464 299.497C247.052 299.914 246.482 300.123 245.756 300.123ZM249.903 300.074V294.382H252.033C252.516 294.382 252.93 294.461 253.277 294.618C253.624 294.77 253.89 294.992 254.074 295.285C254.264 295.572 254.359 295.922 254.359 296.334C254.359 296.735 254.264 297.082 254.074 297.375C253.89 297.662 253.624 297.884 253.277 298.041C252.93 298.199 252.516 298.277 252.033 298.277H250.236L250.505 297.993V300.074H249.903ZM250.505 298.041L250.236 297.749H252.017C252.586 297.749 253.017 297.627 253.31 297.383C253.608 297.133 253.757 296.784 253.757 296.334C253.757 295.878 253.608 295.526 253.31 295.277C253.017 295.027 252.586 294.903 252.017 294.903H250.236L250.505 294.618V298.041Z" fill="#E8E8E3"/>
<path d="M214.533 134.152L187.951 134.031L187.929 138.909L214.511 139.03L214.533 134.152Z" fill="#6A4FF5"/>
<path opacity="0.1" d="M214.533 134.152L187.951 134.031L187.929 138.909L214.511 139.03L214.533 134.152Z" fill="black"/>
<path d="M292.457 164.102C292.666 164.08 292.871 164.032 293.067 163.957C293.353 163.845 293.601 163.655 293.784 163.408C293.967 163.161 294.077 162.868 294.1 162.562C294.1 160.918 294.1 158.52 294.1 155.441C294.1 153.901 294.1 152.175 294.1 150.273C294.1 149.808 294.1 149.322 294.1 148.836C294.168 148.365 294.065 147.885 293.811 147.482C293.669 147.289 293.483 147.132 293.27 147.023C293.057 146.913 292.821 146.855 292.581 146.852H290.969H276.034L189.59 146.532C189.369 146.528 189.15 146.578 188.952 146.676C188.754 146.775 188.583 146.921 188.453 147.1C188.204 147.504 188.108 147.985 188.184 148.454C188.184 149.487 188.184 150.521 188.184 151.554C188.184 153.622 188.184 155.689 188.184 157.756C188.184 158.789 188.184 159.823 188.184 160.856C188.142 161.338 188.142 161.822 188.184 162.303C188.239 162.51 188.34 162.701 188.479 162.862C188.619 163.023 188.794 163.15 188.991 163.233C189.194 163.314 189.412 163.353 189.631 163.347H194.892L217.847 163.471L256.707 163.709L282.907 163.915L290.028 163.998H291.878C292.302 163.998 292.509 163.998 292.509 163.998H291.878H290.028H282.907H256.707L217.847 163.874L194.892 163.781H189.631C189.342 163.793 189.053 163.744 188.784 163.636C188.512 163.52 188.27 163.344 188.076 163.12C187.883 162.896 187.743 162.631 187.668 162.345C187.608 162.073 187.587 161.795 187.606 161.518V160.753C187.606 159.719 187.606 158.686 187.606 157.652C187.606 155.585 187.606 153.518 187.606 151.451C187.606 150.418 187.606 149.384 187.606 148.351C187.586 148.075 187.586 147.799 187.606 147.524C187.644 147.22 187.762 146.931 187.947 146.687C188.125 146.437 188.361 146.234 188.634 146.096C188.908 145.957 189.211 145.887 189.518 145.891L275.962 146.366L290.896 146.47H292.509C292.793 146.47 293.072 146.538 293.324 146.67C293.576 146.801 293.793 146.991 293.955 147.224C294.247 147.673 294.364 148.214 294.286 148.743C294.286 149.229 294.286 149.715 294.286 150.18C294.286 152.061 294.286 153.787 294.286 155.348C294.286 158.448 294.214 160.825 294.193 162.479C294.168 162.797 294.052 163.101 293.86 163.355C293.668 163.61 293.407 163.804 293.108 163.915C292.912 164.037 292.687 164.101 292.457 164.102Z" fill="#E0E0E0"/>
<path d="M244.554 151.721H195.937V156.279H244.554V151.721Z" fill="#6A4FF5"/>
<path opacity="0.2" d="M244.554 151.721H195.937V156.279H244.554V151.721Z" fill="white"/>
<path d="M214.353 178.654L187.771 178.533L187.748 183.411L214.33 183.532L214.353 178.654Z" fill="#6A4FF5"/>
<path opacity="0.1" d="M214.353 178.654L187.771 178.533L187.748 183.411L214.33 183.532L214.353 178.654Z" fill="black"/>
<path d="M291.785 208.607C291.994 208.581 292.201 208.543 292.405 208.493C292.694 208.401 292.959 208.249 293.184 208.045C293.409 207.842 293.587 207.593 293.707 207.315C293.87 206.898 293.934 206.448 293.893 206.002C293.893 205.506 293.893 204.969 293.893 204.369C293.893 203.17 293.893 201.806 293.893 200.235V193.672C293.943 193.197 293.838 192.719 293.594 192.308C293.339 191.887 292.938 191.574 292.467 191.43C291.952 191.338 291.428 191.31 290.907 191.347H276.034L189.89 191.027C189.426 191.028 188.979 191.197 188.631 191.503C188.283 191.809 188.058 192.231 187.998 192.691C187.998 193.672 187.998 194.758 187.998 195.791C187.998 197.858 187.998 199.925 187.998 201.992C187.998 203.026 187.998 204.059 187.998 205.093C187.96 205.576 187.981 206.062 188.06 206.54C188.189 206.959 188.455 207.323 188.815 207.573C189.197 207.816 189.645 207.931 190.096 207.904H191.533H194.52L217.392 208.018L256.118 208.255L282.225 208.462L289.325 208.545H282.225H256.118L217.371 208.503L194.499 208.421H190.003C189.444 208.454 188.89 208.305 188.422 207.997C187.952 207.671 187.609 207.193 187.451 206.643C187.358 206.118 187.33 205.583 187.368 205.051C187.368 204.018 187.368 202.984 187.368 201.951C187.368 199.884 187.368 197.817 187.368 195.75C187.368 194.716 187.368 193.683 187.368 192.649C187.443 192.058 187.731 191.515 188.179 191.121C188.626 190.727 189.201 190.51 189.797 190.51L275.941 190.985L290.814 191.099C291.367 191.065 291.923 191.103 292.467 191.213C293.004 191.388 293.457 191.756 293.738 192.246C294.006 192.701 294.122 193.23 294.069 193.755C294.069 194.241 294.069 194.716 294.069 195.192C294.069 197.062 294.069 198.778 294.069 200.359C294.069 201.941 294.069 203.274 294.069 204.493C294.069 205.082 294.069 205.63 294.069 206.137C294.107 206.599 294.032 207.063 293.852 207.491C293.718 207.776 293.524 208.029 293.283 208.232C293.042 208.435 292.76 208.584 292.457 208.669C292.231 208.687 292.004 208.666 291.785 208.607Z" fill="#E0E0E0"/>
<path d="M214.152 225.087L187.57 224.967L187.548 229.845L214.13 229.966L214.152 225.087Z" fill="#6A4FF5"/>
<path opacity="0.1" d="M214.152 225.087L187.57 224.967L187.548 229.845L214.13 229.966L214.152 225.087Z" fill="black"/>
<path d="M291.579 255.022C291.788 254.998 291.995 254.96 292.199 254.909C292.486 254.817 292.751 254.666 292.975 254.465C293.2 254.263 293.379 254.017 293.501 253.741C293.663 253.323 293.727 252.874 293.687 252.428C293.687 251.922 293.687 251.395 293.687 250.785C293.687 249.596 293.687 248.222 293.687 246.651V240.088C293.736 239.613 293.631 239.134 293.387 238.724C293.126 238.31 292.727 238.003 292.261 237.856C291.747 237.76 291.222 237.729 290.7 237.763H275.828L189.683 237.442C189.22 237.443 188.773 237.613 188.425 237.919C188.077 238.225 187.852 238.647 187.792 239.106C187.792 240.14 187.792 241.173 187.792 242.207C187.792 244.274 187.792 246.341 187.792 248.408C187.792 249.441 187.792 250.475 187.792 251.508C187.754 251.988 187.774 252.471 187.854 252.945C187.978 253.367 188.245 253.732 188.609 253.979C188.988 254.226 189.438 254.342 189.89 254.309H194.386L217.258 254.433L255.984 254.671L282.091 254.878L289.191 254.96H282.091H255.984L217.258 254.847L194.386 254.754H189.89C189.331 254.791 188.774 254.642 188.309 254.33C187.839 254.004 187.495 253.526 187.337 252.976C187.245 252.451 187.217 251.916 187.255 251.384C187.255 250.351 187.255 249.317 187.255 248.284C187.255 246.217 187.255 244.15 187.255 242.083C187.255 241.049 187.255 240.016 187.255 238.93C187.328 238.34 187.614 237.797 188.059 237.403C188.504 237.009 189.078 236.792 189.673 236.791L275.817 237.266L290.69 237.38C291.244 237.346 291.8 237.384 292.344 237.494C292.881 237.669 293.333 238.037 293.615 238.527C293.882 238.983 293.998 239.511 293.946 240.036C293.946 240.522 293.946 241.008 293.946 241.473C293.946 243.344 293.946 245.059 293.946 246.641C293.946 248.222 293.946 249.555 293.946 250.775C293.946 251.364 293.946 251.912 293.946 252.418C293.985 252.88 293.911 253.345 293.728 253.772C293.594 254.057 293.4 254.31 293.159 254.513C292.919 254.717 292.637 254.866 292.333 254.95C292.091 255.033 291.832 255.058 291.579 255.022Z" fill="#E0E0E0"/>
<path d="M243.515 197.514L194.898 197.293L194.878 201.851L243.494 202.071L243.515 197.514Z" fill="#6A4FF5"/>
<path opacity="0.2" d="M243.515 197.514L194.898 197.293L194.878 201.851L243.494 202.071L243.515 197.514Z" fill="white"/>
<path d="M199.295 246.588C199.265 247.003 199.113 247.401 198.859 247.731C198.604 248.061 198.258 248.31 197.864 248.445C197.47 248.581 197.045 248.598 196.641 248.494C196.237 248.39 195.873 248.169 195.593 247.86C195.314 247.551 195.131 247.167 195.068 246.755C195.004 246.343 195.063 245.921 195.238 245.543C195.412 245.164 195.693 244.845 196.047 244.624C196.401 244.404 196.812 244.292 197.228 244.303C197.804 244.336 198.344 244.593 198.731 245.021C199.118 245.449 199.321 246.011 199.295 246.588Z" fill="#6A4FF5"/>
<path d="M205.879 246.619C205.899 246.911 205.859 247.203 205.762 247.478C205.664 247.754 205.511 248.006 205.312 248.219C205.113 248.433 204.872 248.603 204.604 248.72C204.336 248.836 204.047 248.896 203.755 248.896C203.463 248.896 203.174 248.836 202.906 248.72C202.638 248.603 202.397 248.433 202.198 248.219C201.999 248.006 201.846 247.754 201.748 247.478C201.651 247.203 201.611 246.911 201.631 246.619C201.611 246.328 201.651 246.035 201.748 245.76C201.846 245.485 201.999 245.232 202.198 245.019C202.397 244.805 202.638 244.635 202.906 244.518C203.174 244.402 203.463 244.342 203.755 244.342C204.047 244.342 204.336 244.402 204.604 244.518C204.872 244.635 205.113 244.805 205.312 245.019C205.511 245.232 205.664 245.485 205.762 245.76C205.859 246.035 205.899 246.328 205.879 246.619Z" fill="#6A4FF5"/>
<path d="M212.472 246.65C212.442 247.066 212.29 247.463 212.035 247.794C211.781 248.124 211.435 248.372 211.041 248.508C210.647 248.643 210.222 248.66 209.818 248.556C209.414 248.452 209.05 248.232 208.77 247.923C208.49 247.614 208.308 247.229 208.244 246.817C208.181 246.405 208.24 245.984 208.414 245.605C208.588 245.226 208.87 244.907 209.224 244.687C209.578 244.467 209.988 244.355 210.405 244.366C210.98 244.401 211.518 244.659 211.905 245.086C212.291 245.513 212.495 246.075 212.472 246.65Z" fill="#6A4FF5"/>
<path d="M219.056 246.681C219.026 247.097 218.874 247.495 218.619 247.825C218.365 248.155 218.019 248.403 217.625 248.539C217.231 248.674 216.806 248.691 216.402 248.587C215.998 248.483 215.634 248.263 215.354 247.954C215.074 247.645 214.892 247.261 214.828 246.849C214.765 246.437 214.824 246.015 214.998 245.636C215.172 245.258 215.454 244.938 215.808 244.718C216.162 244.498 216.572 244.386 216.989 244.397C217.564 244.432 218.102 244.691 218.489 245.117C218.875 245.544 219.079 246.106 219.056 246.681Z" fill="#6A4FF5"/>
<path d="M225.64 246.702C225.611 247.119 225.461 247.517 225.208 247.849C224.955 248.181 224.609 248.431 224.215 248.568C223.821 248.705 223.395 248.723 222.991 248.62C222.586 248.517 222.221 248.298 221.94 247.989C221.66 247.68 221.476 247.296 221.412 246.883C221.348 246.471 221.407 246.049 221.58 245.669C221.754 245.29 222.036 244.97 222.39 244.75C222.744 244.529 223.156 244.417 223.573 244.428C224.146 244.463 224.683 244.72 225.069 245.145C225.455 245.57 225.66 246.129 225.64 246.702Z" fill="#6A4FF5"/>
<path d="M232.234 246.733C232.205 247.147 232.057 247.544 231.806 247.875C231.555 248.205 231.213 248.456 230.822 248.595C230.43 248.733 230.007 248.755 229.604 248.656C229.201 248.558 228.835 248.343 228.552 248.039C228.269 247.736 228.081 247.356 228.011 246.947C227.941 246.537 227.992 246.117 228.158 245.736C228.324 245.356 228.598 245.032 228.946 244.805C229.293 244.578 229.7 244.458 230.115 244.459C230.697 244.481 231.247 244.732 231.644 245.158C232.041 245.584 232.253 246.151 232.234 246.733Z" fill="#6A4FF5"/>
<path d="M238.817 246.764C238.838 247.055 238.798 247.347 238.7 247.623C238.603 247.898 238.45 248.15 238.251 248.364C238.051 248.578 237.81 248.748 237.542 248.864C237.275 248.981 236.986 249.041 236.694 249.041C236.401 249.041 236.112 248.981 235.845 248.864C235.577 248.748 235.336 248.578 235.137 248.364C234.937 248.15 234.784 247.898 234.687 247.623C234.589 247.347 234.549 247.055 234.57 246.764C234.549 246.472 234.589 246.18 234.687 245.904C234.784 245.629 234.937 245.377 235.137 245.163C235.336 244.95 235.577 244.779 235.845 244.663C236.112 244.546 236.401 244.486 236.694 244.486C236.986 244.486 237.275 244.546 237.542 244.663C237.81 244.779 238.051 244.95 238.251 245.163C238.45 245.377 238.603 245.629 238.7 245.904C238.798 246.18 238.838 246.472 238.817 246.764Z" fill="#6A4FF5"/>
<path d="M245.401 246.795C245.372 247.209 245.224 247.606 244.973 247.937C244.722 248.268 244.38 248.518 243.989 248.657C243.597 248.796 243.174 248.817 242.771 248.719C242.368 248.62 242.002 248.406 241.719 248.102C241.436 247.798 241.248 247.418 241.178 247.009C241.108 246.6 241.159 246.179 241.325 245.799C241.491 245.418 241.765 245.095 242.113 244.868C242.46 244.641 242.867 244.52 243.282 244.521C243.864 244.543 244.414 244.794 244.811 245.221C245.208 245.647 245.42 246.213 245.401 246.795Z" fill="#6A4FF5"/>
<path d="M251.985 246.825C251.956 247.242 251.806 247.64 251.553 247.972C251.299 248.304 250.954 248.554 250.56 248.691C250.166 248.828 249.74 248.846 249.336 248.743C248.931 248.64 248.566 248.421 248.285 248.112C248.004 247.803 247.821 247.419 247.757 247.006C247.693 246.594 247.751 246.172 247.925 245.793C248.099 245.413 248.381 245.093 248.735 244.873C249.089 244.652 249.5 244.54 249.918 244.552C250.491 244.586 251.027 244.843 251.413 245.268C251.8 245.693 252.005 246.252 251.985 246.825Z" fill="#6A4FF5"/>
<g opacity="0.2">
<path d="M199.295 246.588C199.265 247.003 199.113 247.401 198.859 247.731C198.604 248.061 198.258 248.31 197.864 248.445C197.47 248.581 197.045 248.598 196.641 248.494C196.237 248.39 195.873 248.169 195.593 247.86C195.314 247.551 195.131 247.167 195.068 246.755C195.004 246.343 195.063 245.921 195.238 245.543C195.412 245.164 195.693 244.845 196.047 244.624C196.401 244.404 196.812 244.292 197.228 244.303C197.804 244.336 198.344 244.593 198.731 245.021C199.118 245.449 199.321 246.011 199.295 246.588Z" fill="white"/>
<path d="M205.879 246.619C205.899 246.911 205.859 247.203 205.762 247.478C205.664 247.754 205.511 248.006 205.312 248.219C205.113 248.433 204.872 248.603 204.604 248.72C204.336 248.836 204.047 248.896 203.755 248.896C203.463 248.896 203.174 248.836 202.906 248.72C202.638 248.603 202.397 248.433 202.198 248.219C201.999 248.006 201.846 247.754 201.748 247.478C201.651 247.203 201.611 246.911 201.631 246.619C201.611 246.328 201.651 246.035 201.748 245.76C201.846 245.485 201.999 245.232 202.198 245.019C202.397 244.805 202.638 244.635 202.906 244.518C203.174 244.402 203.463 244.342 203.755 244.342C204.047 244.342 204.336 244.402 204.604 244.518C204.872 244.635 205.113 244.805 205.312 245.019C205.511 245.232 205.664 245.485 205.762 245.76C205.859 246.035 205.899 246.328 205.879 246.619Z" fill="white"/>
<path d="M212.473 246.65C212.443 247.066 212.291 247.463 212.036 247.794C211.782 248.124 211.436 248.372 211.042 248.508C210.648 248.643 210.223 248.66 209.819 248.556C209.415 248.452 209.051 248.232 208.771 247.923C208.491 247.614 208.309 247.229 208.245 246.817C208.182 246.405 208.241 245.984 208.415 245.605C208.589 245.226 208.871 244.907 209.225 244.687C209.579 244.467 209.989 244.355 210.406 244.366C210.981 244.401 211.519 244.659 211.906 245.086C212.292 245.513 212.496 246.075 212.473 246.65Z" fill="white"/>
<path d="M219.056 246.681C219.026 247.097 218.874 247.495 218.619 247.825C218.365 248.155 218.019 248.403 217.625 248.539C217.231 248.674 216.806 248.691 216.402 248.587C215.998 248.483 215.634 248.263 215.354 247.954C215.074 247.645 214.892 247.261 214.828 246.849C214.765 246.437 214.824 246.015 214.998 245.636C215.172 245.258 215.454 244.938 215.808 244.718C216.162 244.498 216.572 244.386 216.989 244.397C217.564 244.432 218.102 244.691 218.489 245.117C218.875 245.544 219.079 246.106 219.056 246.681Z" fill="white"/>
<path d="M225.64 246.7C225.611 247.117 225.461 247.515 225.208 247.847C224.955 248.179 224.609 248.429 224.215 248.566C223.821 248.703 223.395 248.721 222.991 248.618C222.586 248.515 222.221 248.296 221.94 247.987C221.66 247.678 221.476 247.294 221.412 246.881C221.348 246.469 221.407 246.047 221.58 245.668C221.754 245.288 222.036 244.968 222.39 244.748C222.744 244.527 223.156 244.415 223.573 244.427C224.146 244.461 224.683 244.718 225.069 245.143C225.455 245.568 225.66 246.127 225.64 246.7Z" fill="white"/>
<path d="M232.234 246.733C232.205 247.147 232.057 247.544 231.806 247.875C231.555 248.205 231.213 248.456 230.822 248.595C230.43 248.733 230.007 248.755 229.604 248.656C229.201 248.558 228.835 248.343 228.552 248.039C228.269 247.736 228.081 247.356 228.011 246.947C227.941 246.537 227.992 246.117 228.158 245.736C228.324 245.356 228.598 245.032 228.946 244.805C229.293 244.578 229.7 244.458 230.115 244.459C230.697 244.481 231.247 244.732 231.644 245.158C232.041 245.584 232.253 246.151 232.234 246.733Z" fill="white"/>
<path d="M238.817 246.764C238.838 247.055 238.798 247.347 238.7 247.623C238.603 247.898 238.45 248.15 238.251 248.364C238.051 248.578 237.81 248.748 237.542 248.864C237.275 248.981 236.986 249.041 236.694 249.041C236.401 249.041 236.112 248.981 235.845 248.864C235.577 248.748 235.336 248.578 235.137 248.364C234.937 248.15 234.784 247.898 234.687 247.623C234.589 247.347 234.549 247.055 234.57 246.764C234.549 246.472 234.589 246.18 234.687 245.904C234.784 245.629 234.937 245.377 235.137 245.163C235.336 244.95 235.577 244.779 235.845 244.663C236.112 244.546 236.401 244.486 236.694 244.486C236.986 244.486 237.275 244.546 237.542 244.663C237.81 244.779 238.051 244.95 238.251 245.163C238.45 245.377 238.603 245.629 238.7 245.904C238.798 246.18 238.838 246.472 238.817 246.764Z" fill="white"/>
<path d="M245.401 246.795C245.372 247.209 245.224 247.606 244.973 247.937C244.722 248.268 244.38 248.518 243.989 248.657C243.597 248.796 243.174 248.817 242.771 248.719C242.368 248.62 242.002 248.406 241.719 248.102C241.436 247.798 241.248 247.418 241.178 247.009C241.108 246.6 241.159 246.179 241.325 245.799C241.491 245.418 241.765 245.095 242.113 244.868C242.46 244.641 242.867 244.52 243.282 244.521C243.864 244.543 244.414 244.794 244.811 245.221C245.208 245.647 245.42 246.213 245.401 246.795Z" fill="white"/>
<path d="M251.985 246.825C251.956 247.242 251.806 247.64 251.553 247.972C251.299 248.304 250.954 248.554 250.56 248.691C250.166 248.828 249.74 248.846 249.336 248.743C248.931 248.64 248.566 248.421 248.285 248.112C248.004 247.803 247.821 247.419 247.757 247.006C247.693 246.594 247.751 246.172 247.925 245.793C248.099 245.413 248.381 245.093 248.735 244.873C249.089 244.652 249.5 244.54 249.918 244.552C250.491 244.586 251.027 244.843 251.413 245.268C251.8 245.693 252.005 246.252 251.985 246.825Z" fill="white"/>
</g>
<path d="M242.631 97.6265C243.349 97.3104 243.958 96.7901 244.382 96.1303C244.807 95.4706 245.028 94.7006 245.018 93.9162C245.045 93.4062 244.968 92.8962 244.791 92.4171C244.614 91.938 244.342 91.4999 243.99 91.1295C243.639 90.7591 243.216 90.4641 242.746 90.2626C242.277 90.061 241.772 89.957 241.261 89.957C240.751 89.957 240.245 90.061 239.776 90.2626C239.307 90.4641 238.884 90.7591 238.532 91.1295C238.181 91.4999 237.908 91.938 237.732 92.4171C237.555 92.8962 237.478 93.4062 237.504 93.9162C237.489 94.7085 237.708 95.4877 238.135 96.1554C238.562 96.8231 239.177 97.3494 239.902 97.6679C234.114 98.536 234.373 104.82 234.373 104.82L248.057 104.882C248.057 104.882 248.377 98.4844 242.631 97.6265Z" fill="#6A4FF5"/>
<path opacity="0.1" d="M242.631 97.6265C243.349 97.3104 243.958 96.7901 244.382 96.1303C244.807 95.4706 245.028 94.7006 245.018 93.9162C245.045 93.4062 244.968 92.8962 244.791 92.4171C244.614 91.938 244.342 91.4999 243.99 91.1295C243.639 90.7591 243.216 90.4641 242.746 90.2626C242.277 90.061 241.772 89.957 241.261 89.957C240.751 89.957 240.245 90.061 239.776 90.2626C239.307 90.4641 238.884 90.7591 238.532 91.1295C238.181 91.4999 237.908 91.938 237.732 92.4171C237.555 92.8962 237.478 93.4062 237.504 93.9162C237.489 94.7085 237.708 95.4877 238.135 96.1554C238.562 96.8231 239.177 97.3494 239.902 97.6679C234.114 98.536 234.373 104.82 234.373 104.82L248.057 104.882C248.057 104.882 248.377 98.4844 242.631 97.6265Z" fill="black"/>
<path d="M264.866 108.934L216.095 108.713L216.068 114.542L264.84 114.763L264.866 108.934Z" fill="#6A4FF5"/>
<path opacity="0.2" d="M264.866 108.934L216.095 108.713L216.068 114.542L264.84 114.763L264.866 108.934Z" fill="white"/>
<path d="M85.5661 139.145H85.0803L83.6747 139.248C82.9141 139.294 82.1577 139.394 81.4113 139.548C80.9279 139.616 80.4484 139.709 79.9747 139.827L78.3728 140.271C75.6461 141.108 73.0736 142.382 70.7557 144.044C67.6932 146.266 65.136 149.112 63.2523 152.394C62.1451 154.286 61.264 156.302 60.6271 158.399C59.9579 160.679 59.5726 163.032 59.4799 165.407C59.4183 166.654 59.439 167.903 59.5419 169.148C59.5419 169.778 59.7176 170.409 59.8003 171.05C59.8698 171.696 59.9908 172.335 60.162 172.962C61.0914 177.109 62.9771 180.982 65.6688 184.271C68.3604 187.56 71.7835 190.175 75.6649 191.906C78.4741 193.118 81.4852 193.795 84.5429 193.901C87.7011 194.075 90.8624 193.621 93.8446 192.568L94.7542 192.227H94.8782L94.9815 192.289L108.014 198.903L107.632 199.234C106.237 194.914 104.893 190.728 103.591 186.707V186.552L103.704 186.439C106.866 183.254 109.213 179.355 110.546 175.07C111.754 171.153 112.107 167.022 111.58 162.957C111.112 159.344 109.95 155.856 108.159 152.684C106.615 149.959 104.624 147.513 102.268 145.449C100.324 143.816 98.1731 142.446 95.8704 141.377C94.128 140.626 92.3133 140.054 90.4547 139.672L88.3876 139.331L86.889 139.217L85.9795 139.155H85.6695C85.7725 139.144 85.8765 139.144 85.9795 139.155H86.8993L88.398 139.217L90.465 139.517C92.3468 139.871 94.1862 140.422 95.953 141.16C98.2954 142.217 100.485 143.583 102.464 145.222C104.863 147.276 106.897 149.723 108.479 152.456C110.321 155.663 111.518 159.198 112.004 162.864C112.574 166.992 112.246 171.194 111.043 175.184C109.7 179.557 107.317 183.54 104.097 186.79L104.159 186.521C105.461 190.542 106.815 194.728 108.221 199.037L108.417 199.668L107.828 199.368L94.7955 192.764H95.0229L94.0927 193.105C91.053 194.175 87.8332 194.638 84.6153 194.469C81.4916 194.35 78.4176 193.649 75.5512 192.402C70.0836 190.061 65.5345 185.991 62.6011 180.816C61.2513 178.427 60.2655 175.849 59.6763 173.168C59.5149 172.525 59.3941 171.873 59.3145 171.215C59.2318 170.564 59.0975 169.923 59.0665 169.282C58.7868 165.605 59.1754 161.907 60.2137 158.368C60.8664 156.242 61.7721 154.202 62.9112 152.291C64.8399 148.979 67.4503 146.115 70.5696 143.889C72.9257 142.222 75.5415 140.958 78.3107 140.147L79.9334 139.734C80.411 139.623 80.8939 139.537 81.3803 139.475C82.1344 139.336 82.8979 139.253 83.6644 139.227L85.0803 139.176C85.2413 139.154 85.4037 139.144 85.5661 139.145Z" fill="#6A4FF5"/>
<path d="M91.4569 163.246H89.5449L85.4108 157.438V153.624C85.4108 153.624 82.4549 153.438 82.8063 158.43C83.1577 163.422 82.8063 162.151 82.8063 162.151C82.8063 162.151 76.5328 162.151 76.016 162.719C75.4993 163.287 75.4683 169.344 75.3959 172.724C75.3563 173.538 75.5901 174.343 76.0601 175.009C76.5301 175.676 77.2094 176.166 77.9901 176.403C78.2089 176.463 78.4348 176.495 78.6619 176.496C80.2328 176.496 88.222 175.225 88.222 175.225H91.5189L91.4569 163.246Z" fill="#6A4FF5"/>
<path d="M96.9246 162.223L95.7464 175.286H92.4805V162.491L96.9246 162.223Z" fill="#6A4FF5"/>
<path d="M135.878 428.179V419.342L120.034 419.229L119.899 432.592L120.881 432.664C125.253 432.943 143.123 433.357 146.058 432.447C149.324 431.434 135.878 428.179 135.878 428.179Z" fill="#6A4FF5"/>
<path d="M146.43 431.62C146.43 431.765 140.498 431.889 133.191 431.889C125.884 431.889 119.951 431.765 119.951 431.62C119.951 431.476 125.884 431.352 133.191 431.352C140.498 431.352 146.43 431.476 146.43 431.62Z" fill="#263238"/>
<path d="M136.157 429.987C136.023 429.915 136.157 429.45 136.478 428.953C136.798 428.457 137.232 428.251 137.335 428.354C137.439 428.457 137.222 428.85 136.912 429.274C136.602 429.698 136.292 430.059 136.157 429.987Z" fill="#263238"/>
<path d="M137.17 430.566C137.026 430.566 137.098 429.987 137.408 429.439C137.718 428.892 138.131 428.561 138.245 428.643C138.359 428.726 138.173 429.191 137.883 429.677C137.594 430.163 137.305 430.617 137.17 430.566Z" fill="#263238"/>
<path d="M124.727 431.58C124.665 431.58 124.427 431.394 124.086 431.001C123.669 430.496 123.206 430.032 122.701 429.616C122.204 429.22 121.613 428.959 120.985 428.862C120.5 428.8 120.189 428.862 120.158 428.8C120.127 428.738 120.427 428.521 120.996 428.479C121.746 428.463 122.478 428.712 123.063 429.182C123.611 429.629 124.073 430.172 124.427 430.784C124.665 431.239 124.789 431.538 124.727 431.58Z" fill="#263238"/>
<path d="M136.209 428.325C136.282 428.449 136.013 428.759 135.558 428.924C135.103 429.089 134.7 429.027 134.68 428.924C134.659 428.821 134.979 428.604 135.372 428.459C135.765 428.314 136.127 428.2 136.209 428.325Z" fill="#263238"/>
<path d="M135.96 427.466C135.96 427.621 135.547 427.745 135.01 427.755C134.472 427.766 134.048 427.642 134.059 427.497C134.069 427.352 134.493 427.218 135.01 427.208C135.526 427.197 135.94 427.321 135.96 427.466Z" fill="#263238"/>
<path d="M174.893 428.179V419.342L159.049 419.229L158.915 432.458L159.897 432.53C164.269 432.809 182.149 433.357 185.074 432.447C188.34 431.434 174.893 428.179 174.893 428.179Z" fill="#6A4FF5"/>
<path d="M185.446 431.642C185.446 431.786 179.524 431.911 172.207 431.911C164.889 431.911 158.978 431.786 158.978 431.642C158.978 431.497 164.9 431.373 172.207 431.373C179.514 431.373 185.446 431.497 185.446 431.642Z" fill="#263238"/>
<path d="M175.172 429.987C175.048 429.915 175.172 429.45 175.493 428.953C175.813 428.457 176.247 428.251 176.351 428.354C176.454 428.457 176.237 428.85 175.927 429.274C175.617 429.698 175.307 430.059 175.172 429.987Z" fill="#263238"/>
<path d="M176.186 430.566C176.051 430.566 176.113 429.987 176.434 429.439C176.754 428.892 177.157 428.561 177.271 428.643C177.385 428.726 177.188 429.191 176.899 429.677C176.61 430.163 176.33 430.617 176.186 430.566Z" fill="#263238"/>
<path d="M163.742 431.58C163.68 431.58 163.453 431.394 163.101 431.001C162.685 430.496 162.221 430.032 161.717 429.616C161.22 429.22 160.629 428.959 160.001 428.862C159.525 428.8 159.205 428.862 159.174 428.8C159.143 428.738 159.443 428.521 160.011 428.479C160.761 428.463 161.493 428.712 162.078 429.182C162.629 429.626 163.092 430.169 163.443 430.784C163.68 431.239 163.804 431.538 163.742 431.58Z" fill="#263238"/>
<path d="M175.225 428.325C175.297 428.449 175.029 428.759 174.574 428.924C174.119 429.089 173.716 429.027 173.695 428.924C173.675 428.821 173.995 428.604 174.388 428.459C174.78 428.314 175.142 428.2 175.225 428.325Z" fill="#263238"/>
<path d="M174.997 427.466C174.997 427.621 174.584 427.745 174.046 427.755C173.509 427.766 173.095 427.642 173.106 427.497C173.116 427.352 173.529 427.218 174.046 427.208C174.563 427.197 174.997 427.321 174.997 427.466Z" fill="#263238"/>
<path d="M233.267 165.766C232.854 165.342 231.831 165.549 231.831 165.549C231.933 164.954 231.933 164.346 231.831 163.751C231.645 163.172 230.342 163.285 230.342 163.285C230.282 162.798 230.282 162.305 230.342 161.818C230.353 161.71 230.33 161.601 230.276 161.507C230.222 161.413 230.141 161.337 230.043 161.291C229.427 161.04 228.765 160.92 228.1 160.939C227.304 160.371 230.528 155.854 231.727 154.407C232.926 152.961 232.709 151.834 231.645 151.834C230.911 151.834 227.149 156.175 225.991 157.632C224.834 159.089 221.764 163.141 221.661 159.906C221.557 156.671 220.255 154.232 219.439 153.818C218.622 153.405 217.754 154.376 218.198 155.276C218.589 156.297 218.832 157.369 218.922 158.459C219.034 159.327 218.996 160.208 218.808 161.063C218.466 162.655 217.999 164.216 217.413 165.735H217.33C217.33 165.735 194.779 187.367 193.146 188.907C191.688 190.291 162.378 187.263 156.497 186.643C154.499 186.351 152.481 186.213 150.461 186.23C147.908 186.343 147.454 186.705 144.911 186.736C138.49 186.807 132.084 187.371 125.75 188.421C122.881 188.908 120.202 190.175 118.004 192.081C115.806 193.987 114.173 196.461 113.285 199.232C107.363 217.732 93.9479 261.522 91.5811 286.12C89.7926 289.363 88.1781 292.699 86.7442 296.114C85.0802 300.641 85.4833 300.796 86.0414 300.899C87.5504 301.179 89.266 293.055 89.9068 295.019C90.5476 296.982 86.6512 304.703 88.2325 304.93C90.2995 305.22 91.9428 296.662 92.1392 295.98C92.3356 295.298 93.3588 295.515 93.1727 296.156C92.873 297.065 89.9688 306.708 91.9945 307.018C93.1107 307.183 93.2348 305.147 93.2348 305.147C93.2348 305.147 95.3018 295.918 96.2423 296.104C97.1828 296.29 96.1803 301.737 95.7049 303.556C95.2295 305.375 95.8909 306.295 96.8624 305.85C97.5239 305.54 99.1052 300.011 99.5393 298.212C99.9734 296.414 101.059 291.432 102.516 294.316C103.973 297.199 106.185 298.874 107.094 298.915C107.299 298.891 107.492 298.807 107.649 298.673C107.806 298.538 107.918 298.36 107.973 298.161C108.027 297.962 108.021 297.752 107.955 297.556C107.888 297.361 107.765 297.19 107.601 297.065C106.818 296.301 106.147 295.431 105.606 294.481C105.124 293.741 104.774 292.923 104.573 292.063C104.156 290.348 103.914 288.596 103.849 286.833L103.684 285.8C105.999 274.338 112.665 240.697 122.287 219.21L126.235 227.333L127.951 233.348L117.43 259.321L162.305 258.732L155.608 232.955L163.742 206.084C172.537 206.28 195.12 206.611 198.882 204.906C203.615 202.839 228.1 171.915 228.1 171.915C229.696 170.675 231.224 169.35 232.678 167.947C232.678 167.947 234.166 166.696 233.267 165.766Z" fill="#FFBE9D"/>
<path d="M115.456 240.129C116.758 235.685 123.445 213.712 123.445 213.712C123.445 213.712 126.731 231.623 125.863 233.783C125.065 235.632 124.121 237.416 123.042 239.116C115.456 250.661 116.448 256.438 116.448 256.438L162.285 255.043C162.388 248.635 158.595 233.732 157.81 231.354C157.024 228.977 159.639 221.195 159.639 221.195C159.639 221.195 164.807 215.934 164.621 213.226C164.522 210.794 164.222 208.374 163.721 205.992L191.627 207.025L190.748 188.112L150.668 184.102C149.273 188.039 136.653 186.107 136.653 186.107C123.031 186.561 122.184 189.063 116.52 193.465C110.857 197.868 101.482 235.654 101.482 235.654L115.456 240.129Z" fill="#6A4FF5"/>
<path d="M142.555 235.653C141.761 235.795 140.952 235.837 140.147 235.777C138.648 235.777 136.591 235.674 134.328 235.446C132.065 235.219 130.018 234.899 128.561 234.609C127.757 234.506 126.97 234.304 126.215 234.01C127.023 234.01 127.829 234.086 128.623 234.237C130.091 234.423 132.127 234.682 134.38 234.909C136.633 235.136 138.679 235.291 140.157 235.395C140.963 235.405 141.766 235.491 142.555 235.653Z" fill="#263238"/>
<path d="M145.697 231.758C144.902 232.147 144.062 232.435 143.196 232.616C139.072 233.699 134.818 234.204 130.556 234.114C129.674 234.143 128.792 234.06 127.931 233.866C128.801 233.756 129.679 233.711 130.556 233.732C132.178 233.68 134.411 233.566 136.871 233.277C139.33 232.988 141.522 232.574 143.072 232.244C143.933 232.014 144.811 231.851 145.697 231.758Z" fill="#263238"/>
<path d="M161.117 214.373C161.096 215.161 160.989 215.944 160.797 216.709C160.528 218.145 160.114 220.109 159.587 222.259C159.06 224.409 158.554 226.393 158.099 227.737C157.916 228.506 157.646 229.251 157.293 229.959C157.351 229.173 157.496 228.397 157.727 227.644C158.12 226.031 158.564 224.171 159.06 222.135C159.556 220.099 160.032 218.238 160.425 216.626C160.564 215.85 160.797 215.094 161.117 214.373Z" fill="#263238"/>
<path d="M115.942 237.493C113.551 237.124 111.191 236.575 108.883 235.85C106.524 235.299 104.209 234.573 101.958 233.68C104.348 234.055 106.707 234.604 109.017 235.323C111.376 235.873 113.691 236.598 115.942 237.493Z" fill="#263238"/>
<path d="M164.217 205.763C163.827 205.83 163.429 205.83 163.039 205.763C161.959 205.653 160.899 205.399 159.886 205.009C158.196 204.373 156.657 203.392 155.368 202.126C154.079 200.86 153.07 199.339 152.404 197.66C151.668 195.814 151.353 193.826 151.484 191.842C151.53 190.205 152.019 188.612 152.9 187.232C153.519 186.302 154.444 185.619 155.515 185.299C155.801 185.221 156.096 185.182 156.393 185.186C156.6 185.186 156.703 185.186 156.703 185.186C156.703 185.186 156.269 185.186 155.577 185.465C154.595 185.828 153.762 186.508 153.21 187.398C151.804 189.609 151.411 193.65 152.91 197.423C153.608 199.201 154.7 200.799 156.104 202.094C157.254 203.154 158.579 204.008 160.021 204.616C161.373 205.151 162.78 205.535 164.217 205.763Z" fill="#263238"/>
<path d="M188.309 206.653C188.05 203.484 187.967 200.303 188.061 197.124C187.98 193.948 188.076 190.771 188.35 187.605C188.609 190.771 188.691 193.949 188.598 197.124C188.685 200.304 188.588 203.485 188.309 206.653Z" fill="#263238"/>
<path d="M150.399 185.259C150.513 182.954 150.751 180.35 150.751 180.35C150.751 180.35 156.456 179.719 156.797 173.828C157.138 167.937 156.797 154.346 156.797 154.346L146.461 149.055L134.989 158.077L136.757 187.533L147.278 188.205C148.082 188.227 148.862 187.929 149.447 187.377C150.033 186.825 150.375 186.063 150.399 185.259Z" fill="#FFBE9D"/>
<path d="M151.422 169.167C151.422 169.167 151.422 169.281 151.329 169.415C151.252 169.513 151.153 169.59 151.039 169.641C150.926 169.691 150.802 169.713 150.678 169.705C150.017 169.705 149.376 168.94 149.148 168.051C149.04 167.62 149.04 167.169 149.148 166.739C149.17 166.55 149.237 166.371 149.346 166.215C149.454 166.06 149.599 165.935 149.769 165.85C149.908 165.792 150.064 165.792 150.203 165.85C150.306 165.901 150.389 165.984 150.44 166.087C150.513 166.263 150.44 166.377 150.44 166.366C150.44 166.356 150.44 166.263 150.337 166.16C150.283 166.086 150.204 166.034 150.114 166.015C150.024 165.996 149.931 166.011 149.851 166.056C149.724 166.133 149.619 166.241 149.545 166.369C149.471 166.497 149.431 166.642 149.427 166.79C149.34 167.175 149.34 167.574 149.427 167.958C149.634 168.764 150.192 169.415 150.688 169.477C150.785 169.491 150.884 169.484 150.978 169.457C151.073 169.43 151.16 169.384 151.236 169.322C151.36 169.24 151.402 169.157 151.422 169.167Z" fill="#EB996E"/>
<path d="M160.342 151.163C159.546 148.455 156.663 147.112 154.037 146.367C150.038 145.231 145.718 144.734 141.811 146.171C137.904 147.608 133.212 150.129 133.212 154.439C130.907 154.253 129.584 156.269 128.675 158.77C128.093 160.294 127.745 161.896 127.641 163.524C127.352 169.167 125.77 176.96 122.112 181.094C120.045 183.399 117.182 184.99 116.004 187.864C114.97 190.354 115.508 193.31 114.546 195.832C113.689 198.054 111.797 199.635 110.412 201.568C109.001 203.761 108.171 206.276 107.999 208.877C107.827 211.479 108.32 214.082 109.43 216.441C110.549 218.739 112.124 220.786 114.059 222.456C115.994 224.126 118.248 225.385 120.686 226.156C125.513 227.624 130.661 227.675 135.517 226.3C139.161 225.429 142.56 223.744 145.459 221.37C148.426 218.948 150.463 215.574 151.226 211.821C151.96 207.604 150.782 203.315 149.903 199.119C147.154 185.859 147.94 185.166 151.412 172.857C151.495 172.64 151.536 172.412 151.598 172.195C151.66 171.978 151.691 171.875 151.733 171.71C151.831 171.223 151.883 170.728 151.888 170.232C151.38 170.42 150.83 170.46 150.301 170.347C149.772 170.233 149.286 169.971 148.901 169.591C148.515 169.186 148.246 168.683 148.122 168.137C147.998 167.592 148.024 167.022 148.198 166.49C148.442 165.908 148.805 165.384 149.265 164.951C149.724 164.519 150.269 164.187 150.865 163.979C152.012 163.503 153.242 163.255 154.368 162.728C156.756 161.591 158.409 159.235 159.536 156.765C160.462 155.053 160.748 153.067 160.342 151.163Z" fill="#263238"/>
<path d="M151.836 169.445C152.054 169.768 152.234 170.115 152.373 170.479C152.683 171.13 153.096 172.05 153.551 173.114L153.634 173.311H153.417L152.383 173.404C151.67 173.404 151.071 173.538 150.368 173.528C150.307 173.514 150.25 173.485 150.203 173.443C150.156 173.402 150.12 173.349 150.099 173.29C150.068 173.196 150.068 173.095 150.099 173.001C150.123 172.861 150.154 172.723 150.192 172.587L150.378 171.853C150.472 171.364 150.617 170.886 150.812 170.427C150.793 170.926 150.72 171.422 150.595 171.905L150.451 172.639C150.399 172.887 150.306 173.269 150.451 173.238C150.967 173.238 151.701 173.125 152.383 173.083L153.417 172.99L153.283 173.218C152.838 172.184 152.466 171.213 152.249 170.541C152.059 170.198 151.919 169.829 151.836 169.445Z" fill="#6A4FF5"/>
<path d="M116.448 256.438L162.285 255.043L182.232 332.909L178.563 422.226H154.326L157.293 334.811L139.568 280.602L142.296 425.689L117.802 426.05L115.228 289.676C115.114 285.883 113.874 277.336 114.339 273.574L116.448 256.438Z" fill="#263238"/>
<path d="M145.665 281.707C144.915 281.754 144.162 281.709 143.423 281.573C142.038 281.407 140.146 281.118 138.069 280.705C135.992 280.291 134.131 279.816 132.788 279.433C132.07 279.275 131.375 279.025 130.721 278.689C130.721 278.534 134.09 279.34 138.224 280.177C142.358 281.015 145.686 281.552 145.665 281.707Z" fill="#455A64"/>
<path d="M178.315 417.327C178.315 417.472 172.827 417.596 166.057 417.596C159.287 417.596 153.789 417.472 153.789 417.327C153.789 417.183 159.277 417.059 166.057 417.059C172.837 417.059 178.315 417.172 178.315 417.327Z" fill="#455A64"/>
<path d="M142.079 421.915C142.079 422.07 136.746 422.184 130.173 422.184C123.6 422.184 118.277 422.07 118.277 421.915C118.277 421.76 123.61 421.646 130.173 421.646C136.736 421.646 142.079 421.771 142.079 421.915Z" fill="#455A64"/>
<path d="M138.916 421.544C138.772 421.544 138.131 389.845 137.48 350.747C136.829 311.649 136.446 279.93 136.58 279.93C136.715 279.93 137.376 311.618 138.017 350.737C138.658 389.856 139.071 421.544 138.916 421.544Z" fill="#455A64"/>
<path d="M175.059 417.327C175.048 417.186 175.048 417.044 175.059 416.903V415.663C175.059 414.546 175.142 412.944 175.204 410.908C175.349 406.774 175.555 400.769 175.814 393.411C176.372 378.611 177.157 358.209 178.015 335.688C178.015 335.471 178.015 335.265 178.015 335.079V335.151C172.589 313.447 167.68 293.748 164.114 279.495L159.98 262.639C159.505 260.665 159.143 259.125 158.885 258.05C158.761 257.543 158.678 257.151 158.606 256.851C158.565 256.716 158.541 256.578 158.533 256.438C158.587 256.568 158.628 256.703 158.657 256.841C158.74 257.13 158.843 257.523 158.988 258.019C159.267 259.052 159.67 260.623 160.187 262.587C161.22 266.576 162.678 272.323 164.497 279.402C168.093 293.644 173.054 313.292 178.553 335.027V335.099C178.553 335.285 178.553 335.502 178.553 335.709C177.633 358.23 176.796 378.621 176.186 393.421C175.865 400.79 175.597 406.754 175.411 410.908C175.307 412.975 175.225 414.546 175.173 415.663C175.173 416.19 175.111 416.603 175.101 416.903C175.102 417.045 175.088 417.187 175.059 417.327Z" fill="#455A64"/>
<path d="M167.153 333.26C165.412 333.832 163.618 334.23 161.799 334.448C159.566 334.831 157.665 335.099 156.807 335.141V334.934C157.086 335.017 157.231 335.068 157.231 335.11C157.231 335.151 157.055 335.11 156.766 335.11H156.146L156.766 334.924C157.572 334.686 159.473 334.293 161.706 333.89C163.496 333.502 165.321 333.291 167.153 333.26Z" fill="#455A64"/>
<path d="M166.729 336.226C165.117 336.3 163.502 336.228 161.903 336.009C160.288 335.976 158.68 335.8 157.097 335.482C160.327 335.219 163.578 335.47 166.729 336.226Z" fill="#455A64"/>
<path opacity="0.2" d="M116.251 258.082C116.794 258.779 117.478 259.353 118.258 259.768C119.038 260.183 119.896 260.429 120.778 260.49C122.624 260.708 124.491 260.674 126.328 260.386C138.162 259.074 150.698 257.864 162.284 255.043C147.288 255.88 131.444 255.601 116.447 256.438L116.292 257.72" fill="black"/>
<g opacity="0.2">
<path d="M131.702 279.217L140.156 312.021L139.567 280.602L131.702 279.217Z" fill="black"/>
</g>
</svg>
