<svg width="348" height="141" viewBox="0 0 348 141" fill="none" xmlns="http://www.w3.org/2000/svg">
<path d="M67.7907 36.834V42H46.4127V13.86H67.7067V19.026H52.1247V25.368H66.4887V30.45H52.1247V36.834H67.7907ZM94.1158 21.042V42H88.5718V40.362C86.8078 41.79 84.4978 42.63 81.6418 42.63C76.3078 42.63 71.3518 38.136 71.3518 31.542C71.3518 24.948 76.3078 20.412 81.6418 20.412C84.4978 20.412 86.8078 21.252 88.5718 22.722V21.042H94.1158ZM82.6078 37.8C85.5898 37.8 88.5718 35.406 88.5718 31.542C88.5718 27.678 85.5898 25.242 82.6078 25.242C79.2478 25.242 76.7278 27.678 76.7278 31.542C76.7278 35.406 79.2478 37.8 82.6078 37.8ZM113.041 20.748C113.587 20.748 114.007 20.748 114.511 20.916L114.217 26.25H112.999C107.875 26.25 105.523 29.4 105.523 35.238V42H99.9791V21.042H105.523V24.864C107.203 22.428 109.639 20.748 113.041 20.748ZM130.123 20.412C135.163 20.412 138.523 24.024 138.523 29.232V42H132.979V30.408C132.979 27.468 131.299 25.494 128.737 25.494C125.587 25.494 123.529 27.594 123.529 32.718V42H117.985V21.042H123.529V22.932C125.167 21.294 127.351 20.412 130.123 20.412ZM154.079 13.86H167.183C173.651 13.86 177.599 17.682 177.599 23.31C177.599 29.022 173.651 32.802 167.183 32.802H159.791V42H154.079V13.86ZM159.791 27.636H167.183C170.249 27.636 171.929 25.914 171.929 23.31C171.929 20.79 170.249 19.026 167.183 19.026H159.791V27.636ZM191.754 20.538C197.886 20.538 203.052 24.948 203.052 31.542C203.052 38.136 197.886 42.546 191.754 42.546C185.496 42.546 180.33 38.136 180.33 31.542C180.33 24.948 185.496 20.538 191.754 20.538ZM191.754 37.8C194.652 37.8 197.676 35.448 197.676 31.542C197.676 27.636 194.652 25.284 191.754 25.284C188.73 25.284 185.706 27.636 185.706 31.542C185.706 35.448 188.73 37.8 191.754 37.8ZM210.301 11.466C212.233 11.466 213.661 13.02 213.661 14.784C213.661 16.632 212.233 18.018 210.301 18.018C208.327 18.018 206.941 16.632 206.941 14.784C206.941 13.02 208.327 11.466 210.301 11.466ZM213.073 42H207.529V21.042H213.073V42ZM231.391 20.412C236.431 20.412 239.791 24.024 239.791 29.232V42H234.247V30.408C234.247 27.468 232.567 25.494 230.005 25.494C226.855 25.494 224.797 27.594 224.797 32.718V42H219.253V21.042H224.797V22.932C226.435 21.294 228.619 20.412 231.391 20.412ZM258.783 36.456L260.379 41.076C258.195 42.252 256.683 42.63 254.919 42.63C249.963 42.63 246.687 40.026 246.687 34.272V25.578H242.193V21.042H246.687V14.7H252.231V21.042H259.077V25.578H252.231V33.852C252.231 36.372 253.449 37.464 255.297 37.464C256.263 37.464 257.691 37.044 258.783 36.456ZM261.58 36.456L267.166 35.322C267.46 37.464 269.308 38.178 271.492 38.178C273.55 38.178 274.768 37.254 274.768 36.078C274.768 35.322 274.264 34.566 272.458 34.188L268.174 33.306C264.394 32.508 262.252 30.366 262.252 27.342C262.252 23.31 265.528 20.412 270.82 20.412C275.776 20.412 279.22 22.974 279.934 26.628L274.642 27.678C274.432 25.998 272.962 24.78 270.652 24.78C268.426 24.78 267.796 25.872 267.796 26.838C267.796 27.51 268.048 28.224 269.686 28.602L274.684 29.694C278.38 30.492 280.186 32.802 280.186 35.616C280.186 40.236 276.448 42.63 270.988 42.63C266.368 42.63 262.126 40.824 261.58 36.456Z" fill="black"/>
<path fill-rule="evenodd" clip-rule="evenodd" d="M158 75C158 69.4772 153.523 65 148 65H28C22.4772 65 18 69.4772 18 75V93C18 98.5228 22.4772 103 28 103H102C107.523 103 112 107.477 112 113V131C112 136.523 116.477 141 122 141H338C343.523 141 348 136.523 348 131V111C348 105.477 343.523 101 338 101H168C162.477 101 158 96.5228 158 91V75Z" fill="#7E45F6"/>
<path d="M28.8097 74.24H35.3617C41.7457 74.24 45.7217 78.16 45.7217 83.62C45.7217 89.08 41.7457 93 35.3617 93H28.8097V74.24ZM31.8057 90.284H35.3617C39.9257 90.284 42.6977 87.512 42.6977 83.62C42.6977 79.728 39.9257 76.956 35.3617 76.956H31.8057V90.284ZM50.9428 73.12C52.0068 73.12 52.7908 73.96 52.7908 74.94C52.7908 75.976 52.0068 76.732 50.9428 76.732C49.8508 76.732 49.0668 75.976 49.0668 74.94C49.0668 73.96 49.8508 73.12 50.9428 73.12ZM52.3988 93H49.4868V79.112H52.3988V93ZM55.8524 89.276L58.7644 88.66C58.9604 90.312 60.4164 91.012 62.2364 91.012C63.9164 91.012 64.9804 90.256 64.9804 89.164C64.9804 88.324 64.3924 87.792 63.1044 87.512L60.0804 86.896C57.6724 86.364 56.3004 85.076 56.3004 83.116C56.3004 80.54 58.4564 78.72 61.7884 78.72C64.9804 78.72 67.1364 80.4 67.6404 82.724L64.8684 83.312C64.6444 81.968 63.4964 81.044 61.7044 81.044C59.9964 81.044 59.2404 81.884 59.2404 82.864C59.2404 83.648 59.6884 84.152 60.9204 84.432L64.2244 85.16C66.4644 85.636 67.8364 86.952 67.8364 88.912C67.8364 91.824 65.4564 93.392 61.9844 93.392C58.8764 93.392 56.2164 92.076 55.8524 89.276ZM77.2698 90.704C79.1178 90.704 80.6858 89.808 81.3578 87.792L84.0458 88.492C83.2898 91.488 80.4898 93.392 77.2698 93.392C73.2938 93.392 69.9338 90.452 69.9338 86.056C69.9338 81.716 73.2938 78.72 77.2698 78.72C80.4058 78.72 83.1778 80.624 84.0458 83.592L81.2458 84.404C80.7138 82.36 79.1178 81.408 77.2698 81.408C74.6938 81.408 72.7898 83.312 72.7898 86.056C72.7898 88.884 74.6938 90.704 77.2698 90.704ZM93.5699 78.804C97.6579 78.804 100.99 81.744 100.99 86.056C100.99 90.368 97.6579 93.336 93.5699 93.336C89.4539 93.336 86.0939 90.368 86.0939 86.056C86.0939 81.744 89.4539 78.804 93.5699 78.804ZM93.5699 90.816C95.9499 90.816 98.1619 88.94 98.1619 86.056C98.1619 83.172 95.9499 81.296 93.5699 81.296C91.1339 81.296 88.9499 83.172 88.9499 86.056C88.9499 88.94 91.1339 90.816 93.5699 90.816ZM117.085 79.084L111.093 93H107.985L102.021 79.084H105.185L109.553 89.528L113.921 79.084H117.085ZM132.199 85.748V86.756H120.943C121.223 89.332 123.099 90.872 125.143 90.872C126.683 90.872 128.251 90.424 129.231 88.464L131.835 89.024C130.687 91.936 128.223 93.392 125.143 93.392C121.363 93.392 118.059 90.48 118.059 86.084C118.059 81.66 121.335 78.72 125.255 78.72C128.979 78.72 132.059 81.576 132.199 85.748ZM125.255 81.296C123.435 81.296 121.475 82.444 121.027 84.684H129.203C128.755 82.416 127.159 81.296 125.255 81.296ZM143.627 78.944C143.963 78.944 144.243 78.944 144.607 79.056L144.411 81.856C144.187 81.828 143.851 81.828 143.599 81.828C140.071 81.828 138.335 84.292 138.335 88.1V93H135.423V79.112H138.335V82.08C139.455 80.232 141.219 78.944 143.627 78.944ZM128.078 116.804C132.166 116.804 135.498 119.744 135.498 124.056C135.498 128.368 132.166 131.336 128.078 131.336C123.962 131.336 120.602 128.368 120.602 124.056C120.602 119.744 123.962 116.804 128.078 116.804ZM128.078 128.816C130.458 128.816 132.67 126.94 132.67 124.056C132.67 121.172 130.458 119.296 128.078 119.296C125.642 119.296 123.458 121.172 123.458 124.056C123.458 126.94 125.642 128.816 128.078 128.816ZM146.487 116.72C149.819 116.72 152.059 119.128 152.059 122.6V131H149.119V123.188C149.119 120.92 147.803 119.408 145.815 119.408C143.323 119.408 141.671 121.088 141.671 124.588V131H138.759V117.112H141.671V118.82C142.791 117.476 144.415 116.72 146.487 116.72ZM169.312 116.804C173.4 116.804 176.732 119.744 176.732 124.056C176.732 128.368 173.4 131.336 169.312 131.336C165.196 131.336 161.836 128.368 161.836 124.056C161.836 119.744 165.196 116.804 169.312 116.804ZM169.312 128.816C171.692 128.816 173.904 126.94 173.904 124.056C173.904 121.172 171.692 119.296 169.312 119.296C166.876 119.296 164.692 121.172 164.692 124.056C164.692 126.94 166.876 128.816 169.312 128.816ZM192.929 117.112V131H190.017V129.292C188.897 130.636 187.273 131.392 185.229 131.392C181.869 131.392 179.657 128.984 179.657 125.484V117.112H182.569V124.896C182.569 127.164 183.885 128.704 185.901 128.704C188.393 128.704 190.017 127.024 190.017 123.524V117.112H192.929ZM205.561 116.944C205.897 116.944 206.177 116.944 206.541 117.056L206.345 119.856C206.121 119.828 205.785 119.828 205.533 119.828C202.005 119.828 200.269 122.292 200.269 126.1V131H197.357V117.112H200.269V120.08C201.389 118.232 203.153 116.944 205.561 116.944ZM223.984 116.72C227.624 116.72 230.872 119.688 230.872 124.056C230.872 128.452 227.624 131.392 223.984 131.392C221.884 131.392 220.148 130.664 218.944 129.404V135.76H216.032V117.112H218.944V118.708C220.148 117.448 221.884 116.72 223.984 116.72ZM223.508 128.816C226.056 128.816 228.044 126.996 228.044 124.056C228.044 121.144 226.056 119.296 223.508 119.296C221.212 119.296 218.944 121.144 218.944 124.056C218.944 126.996 221.212 128.816 223.508 128.816ZM236.991 131H234.079V110.84H236.991V131ZM254.987 117.112V131H252.075V129.404C250.871 130.664 249.135 131.392 247.035 131.392C243.395 131.392 240.147 128.452 240.147 124.056C240.147 119.688 243.395 116.72 247.035 116.72C249.135 116.72 250.871 117.448 252.075 118.708V117.112H254.987ZM247.511 128.816C249.807 128.816 252.075 126.996 252.075 124.056C252.075 121.144 249.807 119.296 247.511 119.296C244.963 119.296 242.975 121.144 242.975 124.056C242.975 126.996 244.963 128.816 247.511 128.816ZM267.744 127.892L268.64 130.328C267.324 131.112 266.372 131.392 265.196 131.392C262.2 131.392 260.184 129.712 260.184 126.268V119.52H257.188V117.112H260.184V112.8H263.096V117.112H267.856V119.52H263.096V126.072C263.096 127.808 264.02 128.648 265.392 128.648C266.12 128.648 267.016 128.368 267.744 127.892ZM279.141 119.52H274.521V131H271.609V119.52H269.341V117.112H271.609V115.46C271.609 112.352 273.653 110.42 276.733 110.42C277.601 110.42 278.357 110.588 279.113 110.924L278.413 113.304C277.909 113.108 277.377 113.024 276.929 113.024C275.473 113.024 274.521 113.92 274.521 115.46V117.112H279.141V119.52ZM287.355 116.804C291.443 116.804 294.775 119.744 294.775 124.056C294.775 128.368 291.443 131.336 287.355 131.336C283.239 131.336 279.879 128.368 279.879 124.056C279.879 119.744 283.239 116.804 287.355 116.804ZM287.355 128.816C289.735 128.816 291.947 126.94 291.947 124.056C291.947 121.172 289.735 119.296 287.355 119.296C284.919 119.296 282.735 121.172 282.735 124.056C282.735 126.94 284.919 128.816 287.355 128.816ZM306.24 116.944C306.576 116.944 306.856 116.944 307.22 117.056L307.024 119.856C306.8 119.828 306.464 119.828 306.212 119.828C302.684 119.828 300.948 122.292 300.948 126.1V131H298.036V117.112H300.948V120.08C302.068 118.232 303.832 116.944 306.24 116.944ZM326.958 116.72C329.842 116.72 332.222 118.876 332.222 122.152V131H329.338V122.74C329.338 120.696 327.994 119.408 326.202 119.408C323.934 119.408 322.45 121.004 322.45 124.112V131H319.538V122.74C319.538 120.696 318.194 119.408 316.402 119.408C314.162 119.408 312.706 121.004 312.706 124.112V131H309.794V117.112H312.706V118.68C313.714 117.448 315.17 116.72 317.158 116.72C319.146 116.72 320.882 117.644 321.778 119.268C322.898 117.7 324.662 116.72 326.958 116.72ZM339.649 112.24V113.108L339.537 125.148H336.569L336.457 113.108V112.24H339.649ZM338.025 127.556C339.089 127.556 339.873 128.368 339.873 129.32C339.873 130.328 339.089 131.112 338.025 131.112C336.961 131.112 336.205 130.328 336.205 129.32C336.205 128.368 336.961 127.556 338.025 127.556Z" fill="white"/>
<path d="M181.515 79.112V93H178.603V91.404C177.399 92.664 175.663 93.392 173.563 93.392C169.923 93.392 166.675 90.452 166.675 86.056C166.675 81.688 169.923 78.72 173.563 78.72C175.663 78.72 177.399 79.448 178.603 80.708V79.112H181.515ZM174.039 90.816C176.335 90.816 178.603 88.996 178.603 86.056C178.603 83.144 176.335 81.296 174.039 81.296C171.491 81.296 169.503 83.144 169.503 86.056C169.503 88.996 171.491 90.816 174.039 90.816ZM200.573 78.72C203.905 78.72 206.145 81.128 206.145 84.6V93H203.205V85.188C203.205 82.92 201.889 81.408 199.901 81.408C197.409 81.408 195.757 83.088 195.757 86.588V93H192.845V79.112H195.757V80.82C196.877 79.476 198.501 78.72 200.573 78.72ZM223.144 85.748V86.756H211.888C212.168 89.332 214.044 90.872 216.088 90.872C217.628 90.872 219.196 90.424 220.176 88.464L222.78 89.024C221.632 91.936 219.168 93.392 216.088 93.392C212.308 93.392 209.004 90.48 209.004 86.084C209.004 81.66 212.28 78.72 216.2 78.72C219.924 78.72 223.004 81.576 223.144 85.748ZM216.2 81.296C214.38 81.296 212.42 82.444 211.972 84.684H220.148C219.7 82.416 218.104 81.296 216.2 81.296ZM245.439 79.112L240.791 93.056H238.131L234.939 83.704L231.747 93.056H229.087L224.439 79.112H227.351L230.515 88.772L233.791 79.112H236.087L239.363 88.772L242.527 79.112H245.439ZM274.15 79.112L269.502 93.056H266.842L263.65 83.704L260.458 93.056H257.798L253.15 79.112H256.062L259.226 88.772L262.502 79.112H264.798L268.074 88.772L271.238 79.112H274.15ZM290.233 79.112V93H287.321V91.404C286.117 92.664 284.381 93.392 282.281 93.392C278.641 93.392 275.393 90.452 275.393 86.056C275.393 81.688 278.641 78.72 282.281 78.72C284.381 78.72 286.117 79.448 287.321 80.708V79.112H290.233ZM282.757 90.816C285.053 90.816 287.321 88.996 287.321 86.056C287.321 83.144 285.053 81.296 282.757 81.296C280.209 81.296 278.221 83.144 278.221 86.056C278.221 88.996 280.209 90.816 282.757 90.816ZM308.114 79.084L299.798 97.76H296.55L298.818 92.664L292.826 79.084H296.074L300.414 89.108L304.866 79.084H308.114ZM10.6029 127.892L11.4989 130.328C10.1829 131.112 9.23088 131.392 8.05488 131.392C5.05888 131.392 3.04288 129.712 3.04288 126.268V119.52H0.046875V117.112H3.04288V112.8H5.95488V117.112H10.7149V119.52H5.95488V126.072C5.95488 127.808 6.87888 128.648 8.25088 128.648C8.97888 128.648 9.87488 128.368 10.6029 127.892ZM19.7692 116.804C23.8572 116.804 27.1892 119.744 27.1892 124.056C27.1892 128.368 23.8572 131.336 19.7692 131.336C15.6532 131.336 12.2932 128.368 12.2932 124.056C12.2932 119.744 15.6532 116.804 19.7692 116.804ZM19.7692 128.816C22.1492 128.816 24.3612 126.94 24.3612 124.056C24.3612 121.172 22.1492 119.296 19.7692 119.296C17.3332 119.296 15.1492 121.172 15.1492 124.056C15.1492 126.94 17.3332 128.816 19.7692 128.816ZM40.2803 131H37.3683V110.84H40.2803V131ZM57.6324 123.748V124.756H46.3764C46.6564 127.332 48.5324 128.872 50.5764 128.872C52.1164 128.872 53.6844 128.424 54.6644 126.464L57.2684 127.024C56.1204 129.936 53.6564 131.392 50.5764 131.392C46.7964 131.392 43.4924 128.48 43.4924 124.084C43.4924 119.66 46.7684 116.72 50.6884 116.72C54.4124 116.72 57.4924 119.576 57.6324 123.748ZM50.6884 119.296C48.8684 119.296 46.9084 120.444 46.4604 122.684H54.6364C54.1884 120.416 52.5924 119.296 50.6884 119.296ZM74.4365 117.112V131H71.5245V129.404C70.3205 130.664 68.5845 131.392 66.4845 131.392C62.8445 131.392 59.5965 128.452 59.5965 124.056C59.5965 119.688 62.8445 116.72 66.4845 116.72C68.5845 116.72 70.3205 117.448 71.5245 118.708V117.112H74.4365ZM66.9605 128.816C69.2565 128.816 71.5245 126.996 71.5245 124.056C71.5245 121.144 69.2565 119.296 66.9605 119.296C64.4125 119.296 62.4245 121.144 62.4245 124.056C62.4245 126.996 64.4125 128.816 66.9605 128.816ZM87.0527 116.944C87.3887 116.944 87.6687 116.944 88.0327 117.056L87.8367 119.856C87.6127 119.828 87.2767 119.828 87.0247 119.828C83.4967 119.828 81.7607 122.292 81.7607 126.1V131H78.8487V117.112H81.7607V120.08C82.8807 118.232 84.6447 116.944 87.0527 116.944ZM98.3345 116.72C101.667 116.72 103.907 119.128 103.907 122.6V131H100.967V123.188C100.967 120.92 99.6505 119.408 97.6625 119.408C95.1705 119.408 93.5185 121.088 93.5185 124.588V131H90.6065V117.112H93.5185V118.82C94.6385 117.476 96.2625 116.72 98.3345 116.72Z" fill="#1A1C1E"/>
</svg>
