<svg width="49" height="49" viewBox="0 0 49 49" fill="none" xmlns="http://www.w3.org/2000/svg">
<path d="M18.1124 24.5L22.1374 28.525L31.1936 19.4687M14.7591 8.03512C16.3768 7.90603 17.9126 7.2699 19.1478 6.21728C22.0302 3.76091 26.2696 3.76091 29.152 6.21728C30.3872 7.2699 31.923 7.90603 33.5407 8.03512C37.3158 8.33638 40.3135 11.3341 40.6148 15.1092C40.7439 16.7269 41.38 18.2627 42.4326 19.4979C44.889 22.3803 44.889 26.6197 42.4326 29.5021C41.38 30.7373 40.7439 32.2731 40.6148 33.8908C40.3135 37.6659 37.3158 40.6636 33.5407 40.9649C31.923 41.094 30.3872 41.7301 29.152 42.7827C26.2696 45.2391 22.0302 45.2391 19.1478 42.7827C17.9126 41.7301 16.3768 41.094 14.7591 40.9649C10.984 40.6636 7.98628 37.6659 7.68503 33.8908C7.55593 32.2731 6.9198 30.7373 5.86718 29.5021C3.41081 26.6197 3.41081 22.3803 5.86718 19.4979C6.9198 18.2627 7.55593 16.7269 7.68503 15.1092C7.98628 11.3341 10.984 8.33638 14.7591 8.03512Z" stroke="#52A31D" stroke-width="3" stroke-linecap="round" stroke-linejoin="round"/>
</svg>
