<svg width="32" height="32" viewBox="0 0 32 32" fill="none" xmlns="http://www.w3.org/2000/svg">
<path opacity="0.1" fill-rule="evenodd" clip-rule="evenodd" d="M0 16C0 7.16344 7.16344 0 16 0C24.8366 0 32 7.16344 32 16C32 24.8366 24.8366 32 16 32C7.16344 32 0 24.8366 0 16Z" fill="#1A1C1E"/>
<path fill-rule="evenodd" clip-rule="evenodd" d="M22.6677 10.499C23.4021 10.7005 23.9804 11.2943 24.1767 12.0483C24.5333 13.4148 24.5333 16.2661 24.5333 16.2661C24.5333 16.2661 24.5333 19.1174 24.1767 20.484C23.9804 21.238 23.4021 21.8317 22.6677 22.0334C21.3369 22.3995 16 22.3995 16 22.3995C16 22.3995 10.6631 22.3995 9.33218 22.0334C8.59783 21.8317 8.0195 21.238 7.82323 20.484C7.46667 19.1174 7.46667 16.2661 7.46667 16.2661C7.46667 16.2661 7.46667 13.4148 7.82323 12.0483C8.0195 11.2943 8.59783 10.7005 9.33218 10.499C10.6631 10.1328 16 10.1328 16 10.1328C16 10.1328 21.3369 10.1328 22.6677 10.499ZM14.4 13.8661V19.1994L18.6667 16.5329L14.4 13.8661Z" fill="#1A1C1E"/>
</svg>
